<?xml version="1.0" encoding="UTF-8"?>
<svg width="965px" height="412px" viewBox="0 0 965 412" version="1.1" xmlns="http://www.w3.org/2000/svg" xmlns:xlink="http://www.w3.org/1999/xlink">
    <!-- Generator: Sketch 63.1 (92452) - https://sketch.com -->
    <title>path2987</title>
    <desc>Created with Sketch.</desc>
    <g id="Page-1" stroke="none" stroke-width="1" fill="none" fill-rule="evenodd">
        <g id="brush-stroke-banner-6" transform="translate(-42.000000, -65.000000)" fill="#FFC2C2" fill-rule="nonzero">
            <path d="M278.87214,383.05161 C278.87214,382.27457 278.63122,381.78772 278.33676,381.96971 C278.04231,382.15169 277.43389,381.42104 276.98473,380.34604 C276.5109,379.21201 275.78022,378.3915 275.24417,378.3915 C274.514,378.3915 274.45504,378.22912 274.963,377.61706 C275.45675,377.02214 275.44043,376.78701 274.8926,376.60268 C274.33163,376.41393 274.35616,376.14772 275.00758,375.35505 C275.63864,374.58716 275.67148,374.29209 275.1456,374.1151 C274.76604,373.98735 274.4555,373.64043 274.4555,373.34417 C274.4555,373.04791 274.70109,372.9573 275.00126,373.14282 C275.31421,373.33622 275.40676,373.11462 275.21823,372.62331 C275.0374,372.15207 275.17313,371.76652 275.52001,371.76652 C275.97951,371.76652 275.99027,371.46695 275.55961,370.66236 C275.08498,369.77548 275.13976,369.55819 275.838,369.55819 C276.54054,369.55819 276.57467,369.41619 276.01594,368.81808 C275.30121,368.05295 273.91298,368.73708 274.09424,369.76522 C274.14104,370.03091 273.88841,370.35565 273.53275,370.48685 C273.1074,370.64376 272.99545,370.30718 273.20565,369.50338 C273.38142,368.83127 273.29975,368.41334 273.02419,368.57465 C272.74863,368.73596 272.02629,368.68519 271.419,368.46183 C270.54342,368.13978 270.80058,367.9726 272.66119,367.65426 C274.12434,367.40392 275.00753,366.95936 275.00753,366.47321 C275.00753,366.04444 275.49032,365.69362 276.0804,365.69362 C276.67046,365.69362 277.49309,365.20842 277.90845,364.61541 C278.65316,363.55219 281.46524,362.10132 282.37677,362.31002 C282.63428,362.36902 284.24912,362.0629 285.9653,361.62985 C287.68148,361.19679 290.6388,360.66735 292.53712,360.45331 C294.43545,360.23927 296.12706,359.84016 296.29626,359.56639 C296.46545,359.29262 297.14821,359.06307 297.8135,359.05626 C298.47877,359.04926 300.51372,358.30971 302.33559,357.41239 C304.15746,356.51506 306.06818,355.77532 306.58164,355.76851 C307.0951,355.76151 307.66875,355.50771 307.85641,355.20406 C308.04407,354.90041 307.91721,354.65198 307.57455,354.65198 C306.80942,354.65198 307.08528,352.18285 307.85641,352.12921 C308.16005,352.10811 309.49771,351.77899 310.82898,351.39786 C312.16024,351.01674 313.85572,350.85707 314.5967,351.04305 C315.33767,351.22903 316.73282,351.13785 317.69703,350.84045 C318.66123,350.54305 320.83642,350.02842 322.53078,349.69684 C327.18057,348.78689 329.66365,348.02673 329.66365,347.51323 C329.66365,346.98104 301.34226,347.35242 294.33041,347.97654 C290.63614,348.30535 289.22659,348.21547 287.70542,347.55406 C286.64267,347.09196 285.64892,346.67796 285.49709,346.63407 C285.34527,346.59017 284.49501,346.2544 283.60762,345.88789 C282.72023,345.52139 281.60227,345.37413 281.12325,345.56065 C280.64424,345.74718 273.29608,345.98897 264.79402,346.09797 C256.29196,346.20698 248.21776,346.54356 246.85136,346.84592 C245.48496,347.14829 241.39011,347.68411 237.75169,348.03663 C234.11328,348.38916 230.66105,348.932 230.08007,349.24292 C229.49909,349.55385 227.81035,349.69166 226.32731,349.54916 C224.84427,349.40665 223.49693,349.50676 223.33321,349.7717 C223.16949,350.0366 222.80427,350.1104 222.52161,349.9357 C222.23895,349.76101 222.00768,349.8811 222.00768,350.20274 C222.00768,350.5243 221.82135,350.7381 221.59361,350.67784 C220.67528,350.43484 215.93477,351.43928 215.93477,351.87687 C215.93477,352.4157 211.76436,353.31142 210.18748,353.11126 C209.60746,353.03766 208.66614,353.4784 208.09567,354.09073 C207.5252,354.70306 206.63336,355.23341 206.1138,355.26928 C205.59426,355.30508 203.67855,355.38806 201.85668,355.45355 C200.03481,355.51895 197.55044,355.85943 196.33586,356.20998 C195.12128,356.56055 193.18899,356.98705 192.04189,357.15778 C190.89478,357.32849 190.09096,357.68618 190.25564,357.95261 C190.76952,358.7841 189.5427,359.00189 179.95086,359.78196 C179.44117,359.82336 179.06851,360.09264 179.12274,360.38025 C179.17694,360.66785 178.72445,361.04939 178.11716,361.22808 C177.50987,361.40679 176.38575,361.97967 175.61912,362.50117 C174.61627,363.18333 172.52544,363.54896 168.16601,363.80448 C164.83344,363.99981 161.53252,364.13364 160.83066,364.10188 C160.12878,364.07018 158.79153,364.43868 157.85897,364.92093 C156.89588,365.41896 156.01618,365.57898 155.8226,365.29135 C155.34735,364.58517 153.40369,363.90687 153.82947,364.59577 C154.27821,365.32187 153.74097,365.28468 152.27104,364.48788 C149.30418,362.87971 135.25872,364.1021 133.79348,366.096 C133.33985,366.71328 133.29011,367.1297 133.65545,367.25148 C133.96961,367.35619 134.22664,367.66181 134.22664,367.93063 C134.22664,368.19944 133.87912,368.28602 133.45437,368.12302 C133.02961,367.96002 132.51808,368.09202 132.31762,368.41639 C131.78229,369.28258 135.09088,369.15694 136.87645,368.24326 C137.6964,367.8237 139.48523,367.29754 140.85162,367.07402 C142.21803,366.85048 143.77076,366.58694 144.30214,366.48835 C144.83352,366.38975 145.26828,366.63451 145.26828,367.03226 C145.26828,367.54381 145.95488,367.70165 147.61463,367.57167 C149.42834,367.42964 149.73902,367.51657 148.98323,367.95491 C148.44546,368.26675 148.12979,368.72303 148.28172,368.96887 C148.60943,369.4991 145.52278,370.03233 139.54699,370.47782 C136.19167,370.72794 135.09662,370.62894 134.72472,370.04179 C134.37573,369.49081 134.24123,369.47171 134.2351,369.97229 C134.2226,370.98869 130.90421,370.82453 129.71544,369.74871 C129.16015,369.24618 128.70582,369.07004 128.70582,369.35731 C128.70582,369.67411 126.91382,369.73028 124.15115,369.50006 C121.64608,369.29132 117.7332,368.98365 115.45586,368.81635 C113.17852,368.64906 110.49919,368.22335 109.5018,367.87035 C108.5044,367.51734 107.06996,367.34672 106.31414,367.49121 C105.55833,367.63569 104.78327,367.50021 104.59178,367.19056 C104.37773,366.84422 104.52208,366.79926 104.9663,367.07386 C105.41588,367.35171 105.55498,367.3037 105.3344,366.94677 C104.91867,366.2741 102.2856,365.66476 99.16944,365.52012 C97.33124,365.43482 96.95107,365.21879 96.90116,364.23138 C96.84756,363.17103 97.22833,363.00029 100.48969,362.62225 C102.49636,362.38966 104.75927,362.2531 105.51838,362.31879 L106.89859,362.43825 L105.43373,361.64201 C102.89349,360.26124 100.41654,359.67861 95.58091,359.3244 C92.99993,359.13535 89.27337,358.57493 87.29968,358.07903 C82.76019,356.93846 67.008755,356.851 66.321785,357.96254 C66.085375,358.34507 65.599705,358.47745 65.242535,358.25669 C64.320135,357.68663 54.160445,357.49468 54.506035,358.05386 C54.829275,358.57689 54.747015,358.58574 47.524885,358.80495 C42.427555,358.95966 40.275965,359.14829 32.643575,360.10955 C29.163375,360.54787 27.128605,360.29681 25.139525,359.18367 C24.306525,358.71749 24.486055,358.45235 26.492155,357.18595 C28.110225,356.16452 30.086985,355.56371 33.070775,355.18653 C38.162775,354.54283 43.021145,353.73194 46.521455,352.94152 C48.615195,352.46873 49.032795,352.17649 48.813405,351.33758 C48.655935,350.7354 48.225625,350.43438 47.771425,350.60868 C47.345875,350.77197 46.997705,350.63058 46.997705,350.29443 C46.997705,349.95829 47.432465,349.67948 47.963845,349.67483 C48.789515,349.66783 48.809575,349.58863 48.101875,349.1312 C47.578125,348.79273 47.521025,348.59291 47.946525,348.58757 C48.317595,348.58257 48.476275,348.2064 48.300365,347.74798 C48.078405,347.16957 48.629245,346.62895 50.111955,345.97001 L52.242475,345.02316 L46.848305,344.69034 C43.881505,344.50728 39.968625,344.38267 38.153015,344.41342 C36.337405,344.44422 34.851905,344.43832 34.851905,344.40032 C34.851905,344.36242 35.348775,343.75844 35.956065,343.05824 C36.563355,342.35802 37.060235,341.95308 37.060235,342.15836 C37.060235,342.36365 37.619685,342.16536 38.303455,341.71702 C38.987225,341.26899 41.388415,340.61667 43.639455,340.26742 C45.890475,339.91815 48.716165,339.28525 49.918735,338.86095 C51.121335,338.43665 53.005675,338.08065 54.106165,338.06983 C57.180745,338.03963 64.925505,336.02585 62.686035,335.83893 C62.407695,335.81573 61.683085,335.68237 61.075785,335.54263 C60.468505,335.4029 59.668275,335.22206 59.297505,335.14078 C58.034375,334.86386 57.953695,334.32652 59.119695,333.95644 C59.759655,333.75332 60.932615,332.98533 61.726285,332.24979 C62.519955,331.51424 63.723705,330.91244 64.401305,330.91244 C65.078895,330.91244 65.916715,330.57092 66.263135,330.15352 C66.780755,329.52983 66.325535,329.32996 63.708345,329.03186 C61.956795,328.83236 59.778395,328.54879 58.867465,328.40173 C56.700285,328.05187 48.076625,328.10246 47.484325,328.46853 C46.685245,328.9624 40.372725,329.1953 40.372725,328.73092 C40.372725,328.48689 40.745375,327.97795 41.200845,327.59995 C41.656315,327.22195 42.028965,326.65325 42.028965,326.33618 C42.028965,326.01911 41.865495,325.92315 41.665705,326.12294 C41.465905,326.32274 40.969035,326.20944 40.561545,325.87131 C40.151295,325.53083 39.820645,325.49191 39.820645,325.78411 C39.820645,326.07432 39.447985,326.31177 38.992515,326.31177 C37.666625,326.31177 38.030335,325.72052 39.852345,324.91402 C41.901335,324.00704 41.607935,323.62662 38.304665,322.90727 C35.291295,322.25104 34.716855,321.22255 36.877335,320.35174 C39.113225,319.45053 49.617915,318.28084 55.622915,318.26444 C58.437645,318.25644 61.399645,318.08504 62.205165,317.88287 L63.669725,317.51529 L62.096715,316.22854 C61.231565,315.52082 60.103615,314.93286 59.590155,314.92194 C58.281535,314.89414 57.883785,314.01598 58.585725,312.70442 C59.326915,311.3195 64.129245,308.82918 66.058755,308.82918 C66.872265,308.82918 67.342645,308.59091 67.148705,308.27709 C66.961035,307.97345 66.351855,307.72501 65.794965,307.72501 C64.859635,307.72501 63.819675,306.34672 64.024595,305.37867 C64.232895,304.39463 55.473485,305.49513 54.740435,306.54509 C54.180565,307.34701 40.082835,309.44267 38.696935,308.92999 L37.377175,308.44178 L38.660975,307.75472 C39.367045,307.37684 43.953925,306.39931 48.854035,305.58243 C57.820635,304.08764 60.002905,303.03232 54.127345,303.03232 C52.321975,303.03232 50.661105,302.71697 50.121175,302.27164 C49.354275,301.63914 48.292455,301.62166 43.819645,302.1679 C35.595135,303.17232 30.815335,303.86221 29.694405,304.20666 C28.951755,304.43487 28.728415,304.27126 28.866275,303.59994 C29.067195,302.62154 30.775245,301.47359 33.452995,300.51728 C35.757865,299.69415 34.325155,298.96841 31.378125,299.46626 C30.100425,299.6821 27.937075,300.03371 26.570675,300.24762 L24.086305,300.63654 L26.156615,298.65252 C27.295285,297.56132 28.226925,296.57973 28.226925,296.47121 C28.226925,296.3627 26.686355,296.09962 24.803445,295.8866 C20.351525,295.38291 17.969425,294.13489 17.9999693,292.32228 C18.016465,291.36637 21.588035,290.08396 24.911295,289.84074 C26.279425,289.74062 29.386285,289.26398 31.815445,288.78156 C34.244615,288.29914 37.971475,287.79264 40.097365,287.65601 C42.223255,287.51938 45.452925,287.14589 47.274425,286.82605 C58.586915,284.83962 61.133015,284.35069 61.620605,284.07111 C61.920245,283.8993 61.050715,283.48732 59.688305,283.1556 C58.317285,282.82178 57.211215,282.22875 57.211215,281.82747 C57.211215,280.89844 62.775635,278.88038 67.825725,277.97788 C70.28234,277.53885 72.09995,276.88571 72.69507,276.2281 C73.22773,275.63953 75.07586,274.89725 76.90434,274.53751 C81.05289,273.72134 80.94086,272.94722 76.43319,271.28161 C75.46676,270.9245 74.78801,270.345 74.92485,269.99382 C75.23629,269.19453 77.79522,267.97512 79.1611,267.97512 C79.72578,267.97512 80.03424,267.72668 79.84658,267.42303 C79.65891,267.11939 77.65675,266.87095 75.39734,266.87095 C71.67471,266.87095 70.17983,266.30649 71.97941,265.58034 C73.5874,264.9315 65.530375,265.28278 61.550845,266.035 C56.595115,266.97177 53.898725,266.57967 53.898725,264.92226 C53.898725,264.1582 55.340805,263.15497 59.317745,261.15238 C63.064125,259.26587 64.512565,258.27884 64.010435,257.95458 C63.056645,257.33867 63.998035,256.70896 67.700785,255.48596 C72.92724,253.75971 77.07343,250.86608 76.52909,249.32468 C76.15729,248.2719 78.19435,247.69767 86.61044,246.48287 C90.79374,245.87904 94.98317,245.00249 95.92027,244.535 C96.85738,244.06752 98.84133,243.53914 100.32906,243.36082 C104.43128,242.86914 112.28065,240.88342 113.50839,240.02672 C114.10733,239.6088 115.34952,239.2494 116.2688,239.22805 C117.18809,239.20675 118.4371,238.97574 119.04439,238.71478 C119.92361,238.33697 119.69866,238.22373 117.94023,238.15898 C113.23452,237.98569 110.7375,237.52174 110.11361,236.70478 C109.68771,236.14709 109.02236,235.97559 108.18132,236.20669 C107.0775,236.51001 107.03474,236.47389 107.8747,235.94772 C108.41157,235.61141 109.2811,235.40703 109.80699,235.49351 C110.33288,235.58001 111.0974,235.44141 111.5059,235.18537 C111.94535,234.91001 112.80467,235.01754 113.61029,235.4487 C114.67147,236.01662 115.2024,236.03349 116.01642,235.5252 C116.67728,235.11249 117.18368,235.07152 117.39513,235.41367 C117.57895,235.7111 119.14321,235.96325 120.87124,235.97401 C122.59928,235.98471 124.63422,236.34862 125.39333,236.78257 C127.04714,237.72797 127.60166,237.79729 127.60166,237.05861 C127.60166,236.75497 127.21434,236.50653 126.74095,236.50653 C126.26756,236.50653 126.01634,236.28633 126.18267,236.01721 C126.349,235.74809 125.96483,235.39185 125.32896,235.22556 C124.6931,235.05928 124.28078,234.59627 124.41272,234.19666 C124.65618,233.45924 127.12912,233.02716 134.77872,232.38549 C141.68966,231.80579 143.61203,231.49379 143.61203,230.95188 C143.61203,230.66684 143.23938,230.43363 142.78392,230.43363 C142.32385,230.43363 141.95579,229.94289 141.95579,229.32946 C141.95579,228.51974 142.32385,228.2253 143.336,228.2253 C144.92411,228.2253 145.19493,227.3751 143.72893,226.99173 C143.18593,226.84974 140.39102,226.86623 137.51801,227.02833 C129.15042,227.50056 125.80322,227.34342 124.05271,226.39619 C123.16355,225.91503 122.27687,225.61975 122.0823,225.74 C121.88774,225.86025 121.8312,225.25924 121.95666,224.40444 C122.2304,222.53928 121.4539,222.24837 115.78534,222.09243 C112.39273,221.99903 112.12941,221.9153 113.30844,221.30424 C115.24811,220.29898 122.36324,218.85627 126.60619,218.6079 C128.77462,218.48097 130.82292,218.02761 131.55976,217.51152 C133.12813,216.41298 134.07324,216.39927 135.13364,217.45962 C135.61063,217.93662 136.93991,218.28271 138.26868,218.27585 C142.36052,218.25475 157.62737,216.70209 159.70019,216.09622 C161.63585,215.53045 161.69455,215.43911 161.28617,213.62839 C161.02885,212.48741 161.08674,211.52343 161.43344,211.17673 C161.82717,210.783 161.81019,210.37093 161.37884,209.85116 C160.05994,208.26199 161.73771,207.93298 169.79461,208.20081 C176.05475,208.40893 178.00761,208.29491 179.27789,207.64712 C180.62188,206.96176 186.68128,206.0164 190.81507,205.84715 C191.42236,205.82235 193.16142,205.57985 194.67964,205.30839 L197.44005,204.81484 L194.95569,204.41325 C193.58928,204.19236 189.49007,204.13834 185.84633,204.2932 C182.20259,204.44805 176.98541,204.54169 174.25261,204.50128 C171.51981,204.46088 166.17841,204.83249 162.38285,205.32709 C154.87274,206.30574 147.12779,206.9903 143.79368,206.97016 C142.63104,206.96316 141.52372,207.17434 141.333,207.43952 C141.14227,207.70469 140.21063,207.95335 139.26269,207.9921 C138.31475,208.0309 137.53916,208.26824 137.53916,208.51964 C137.53916,208.77106 136.98018,208.81953 136.29698,208.62735 C135.32457,208.35383 135.23464,208.40386 135.88291,208.85774 C136.59679,209.35753 136.57774,209.4387 135.7449,209.44598 C135.21352,209.45098 134.77875,209.73144 134.77875,210.07001 C134.77875,210.44807 134.25369,210.34156 133.41797,209.79397 C131.90668,208.80374 131.24406,208.64826 131.70352,209.39167 C131.86984,209.66079 131.51185,210.01019 130.90797,210.16811 C130.27958,210.33244 129.80994,210.18221 129.80986,209.81681 C129.80976,209.44718 128.93813,209.17839 127.73955,209.17839 C126.42372,209.17839 125.71649,209.42024 125.79863,209.84211 C125.88763,210.2989 125.29264,210.4245 123.89034,210.24496 C121.59204,209.9507 119.32469,208.66432 119.31201,207.64745 C119.30601,207.21277 119.1118,207.26678 118.76838,207.79819 C118.353,208.44094 118.23131,208.27834 118.22475,207.07179 C118.21395,205.08055 119.12357,203.38156 120.20056,203.38156 C120.66326,203.38156 120.8883,203.13312 120.70064,202.82948 C120.51297,202.52583 120.80886,202.25838 121.35816,202.23515 C123.17744,202.15815 124.3329,201.82365 125.56302,201.01764 C126.66599,200.29494 129.2579,200.57311 129.2579,201.41417 C129.2579,201.56623 128.92506,201.56292 128.51824,201.40617 C128.11142,201.25007 127.42822,201.55399 127.00001,202.08156 C126.32907,202.90821 126.32981,202.97548 127.00601,202.5682 C127.60893,202.20474 127.70022,202.32941 127.40137,203.10819 C127.16894,203.71392 127.29761,204.30147 127.72162,204.57051 C128.77786,205.24071 129.66721,205.11464 128.70646,204.43091 C128.08333,203.98744 128.40321,203.91462 129.99871,204.13674 C131.17145,204.29999 132.57013,204.15024 133.12835,203.80161 C133.89235,203.32448 134.3341,203.33436 134.9461,203.84231 C135.59805,204.38339 135.83747,204.32351 136.18274,203.53306 C136.41823,202.99392 136.57146,202.36649 136.52325,202.13876 C136.47505,201.91102 136.78756,201.7247 137.21772,201.7247 C137.64789,201.7247 138.09455,201.44056 138.21031,201.09329 C138.32606,200.74602 139.14962,200.38416 140.04042,200.28919 C140.93122,200.19419 141.93762,199.73689 142.27688,199.27293 C142.61615,198.80896 143.09507,198.61184 143.34116,198.83484 C143.58725,199.05784 143.63258,198.80554 143.44192,198.2742 C143.01515,197.08484 144.07109,196.97366 144.52633,198.15999 C144.81566,198.91399 144.97239,198.90413 145.88922,198.07439 C146.86795,197.18865 146.92563,197.19495 146.93361,198.18855 C146.94061,199.0697 147.02881,199.10598 147.47724,198.41214 C148.27507,197.17762 148.16121,196.90872 146.68357,196.53787 C145.74644,196.30266 145.3644,195.84715 145.42538,195.03772 C145.52258,193.74827 147.44569,192.78435 149.66149,192.91453 C151.72685,193.03592 153.55014,192.32542 153.55014,191.39925 C153.55014,190.80305 154.09885,190.6281 155.62046,190.73919 C157.84554,190.90159 161.5889,190.2802 162.93553,189.52483 C163.60428,189.14973 163.55116,189.05208 162.6595,189.01741 C162.0522,188.99401 160.31315,188.85804 158.79492,188.7157 C154.10037,188.27561 147.85587,188.28943 145.60317,188.745 C144.05669,189.05769 143.561,189.00506 143.83757,188.55755 C144.07508,188.17327 143.92577,188.0491 143.44697,188.23284 C142.99284,188.40711 142.26001,187.90174 141.67738,187.01253 C140.96607,185.92693 140.87256,185.43162 141.34893,185.27278 C141.79626,185.12371 141.68809,184.79441 141.01954,184.26995 C140.11222,183.55823 140.17072,183.51463 141.68039,183.77693 C142.59131,183.93523 143.02608,183.91834 142.64653,183.73933 C141.24834,183.0802 142.01839,182.40183 144.16461,182.40183 C145.55871,182.40183 146.37605,182.65628 146.38138,183.09192 C146.38738,183.59973 146.51522,183.58416 146.86446,183.03302 C147.16265,182.56241 147.46814,182.49283 147.68631,182.84581 C148.05692,183.44547 148.75972,183.39884 150.48526,182.66011 C151.07698,182.40679 152.3777,182.18292 153.37573,182.16265 C155.6639,182.11625 156.40681,180.74561 154.14381,180.74561 C153.2488,180.74561 152.42622,180.38663 152.24618,179.91749 C152.03174,179.3587 152.27298,179.08936 152.98781,179.08936 C153.57047,179.08936 154.24589,178.77882 154.48871,178.39927 C155.12184,177.40958 157.37173,176.23731 157.95096,176.59532 C158.22128,176.76236 158.59848,176.64672 158.78921,176.33795 C158.97993,176.0294 159.82154,175.77686 160.65944,175.77686 C161.49734,175.77686 163.53228,175.3734 165.18153,174.88033 C167.78472,174.10196 168.01862,173.92315 166.95518,173.52427 C166.28145,173.27159 161.67166,173.09849 156.7112,173.13966 C151.75075,173.18116 147.36758,173.01397 146.97084,172.76876 C146.56002,172.51485 146.08687,172.58604 145.87174,172.93414 C145.42812,173.65191 128.26599,174.19605 127.83942,173.50582 C127.68947,173.26319 127.18126,173.2126 126.71006,173.39346 C126.12981,173.61612 126.05344,173.84591 126.47341,174.10543 C126.81446,174.31622 126.33841,174.48868 125.41553,174.48868 C124.49266,174.48868 123.73757,174.25123 123.73757,173.96099 C123.73757,173.67076 123.35891,173.74761 122.8961,174.1317 C122.4333,174.51578 121.87803,174.65343 121.66216,174.43756 C121.44631,174.22169 121.88708,173.57515 122.64166,173.00079 L124.01361,171.9564 L122.6334,172.22174 C121.42393,172.45421 121.38978,172.42213 122.35737,171.96241 C123.9496,171.20596 126.56629,171.28424 128.10019,172.13428 C129.5952,172.96275 131.46672,172.68975 131.46672,171.64322 C131.46672,171.16114 132.55685,170.94459 135.05525,170.93048 C137.30678,170.91778 138.64379,171.13619 138.64379,171.51676 C138.64379,171.8504 138.95433,171.71627 139.33388,171.21871 C139.83236,170.56524 141.32711,170.21563 144.71669,169.95972 C147.29767,169.76485 150.97753,169.25494 152.89415,168.82657 C154.81078,168.39825 157.17092,168.02388 158.13893,167.99473 C159.10693,167.96543 161.14112,167.6025 162.65935,167.1879 C165.24784,166.48106 164.95557,166.45284 157.96665,166.73526 C153.86744,166.90089 150.14089,167.04049 149.68543,167.04547 C149.22996,167.05047 143.5159,167.63692 136.98754,168.34864 C130.45917,169.06041 123.34177,169.71866 121.17111,169.81138 C119.00045,169.90418 117.33816,170.16632 117.47714,170.39405 C117.61612,170.62178 116.65932,170.80914 115.3509,170.81031 C114.0425,170.81031 110.73604,171.17252 108.00324,171.61236 C103.31702,172.36666 92.29354,173.14454 93.79057,172.61524 C94.17202,172.48043 94.34368,172.14283 94.17205,171.86514 C94.00042,171.58746 94.55785,171.3483 95.41079,171.3337 C96.26374,171.3195 97.83113,170.8358 98.89388,170.25958 C99.95665,169.68341 101.32304,168.98028 101.93034,168.69713 C103.92644,167.76632 136.48764,162.3796 144.16461,161.71016 C146.44194,161.51158 153.02551,160.85694 158.79477,160.25552 C164.56403,159.65406 172.17874,158.92091 175.71635,158.62628 C179.25397,158.33155 183.34375,157.73072 184.80474,157.29107 C186.72396,156.71348 187.56674,156.66251 187.84178,157.10753 C188.19048,157.67178 193.9988,157.51729 201.02904,156.75684 C202.0918,156.64185 205.4457,156.39259 208.48215,156.20289 C213.93064,155.86251 222.23172,154.71729 226.87806,153.66505 C228.19011,153.36793 229.49615,153.26851 229.78037,153.44415 C230.06459,153.61983 233.91105,153.21607 238.32806,152.54698 C244.8634,151.55694 246.59425,151.45626 247.62233,152.00655 C248.6561,152.55977 249.98005,152.46695 254.90781,151.49586 C263.11069,149.8793 273.81459,147.77774 279.14864,146.73648 C281.5778,146.26226 285.10697,145.52188 286.99125,145.09127 C288.87552,144.6606 291.23567,144.30948 292.23603,144.31095 C293.23638,144.31095 295.17281,143.95592 296.53922,143.51861 C298.84202,142.78165 303.5568,141.96353 316.13813,140.11783 C322.60159,139.16964 323.90361,138.95079 330.49226,137.70533 C333.52871,137.13136 338.49744,136.25172 341.53389,135.75054 C344.57034,135.24937 347.80003,134.71612 348.71096,134.56553 C355.15715,133.5002 356.38478,133.51998 357.66681,134.71007 C358.35853,135.3522 358.92447,136.15963 358.92447,136.50435 C358.92447,136.84908 359.1108,137.10172 359.33854,137.06578 C359.56627,137.03018 360.32032,137.03018 361.01421,137.06578 C362.06921,137.12038 362.18541,137.30006 361.72373,138.1627 C361.04788,139.42559 361.58851,140.10675 362.60023,139.2671 C363.73858,138.32237 363.47935,139.1721 362.16972,140.67833 C361.48274,141.46842 360.10298,142.17681 358.83326,142.39132 C356.97941,142.70455 356.76786,142.8772 357.36148,143.59244 C358.25242,144.66593 357.49974,144.73253 392.87751,140.45191 C395.30667,140.15797 399.65432,139.79835 402.53895,139.65274 C405.42357,139.50714 410.64075,139.12647 414.13266,138.80684 C417.62457,138.48726 422.22066,138.12735 424.34618,138.00704 C426.47169,137.88678 429.19319,137.53096 430.39394,137.21636 C431.5947,136.90181 436.3583,136.62911 440.9797,136.61046 C445.60112,136.59186 449.71163,136.46583 450.11418,136.33048 C451.10759,135.99654 464.04467,135.31881 467.12302,135.43946 C468.4842,135.49296 469.97784,135.88023 470.44221,136.30045 C471.48265,137.24205 474.13253,137.33643 486.45539,136.87095 C492.11995,136.65689 497.32207,136.17027 499.03021,135.69459 C501.25908,135.07388 504.95598,134.90396 514.76454,134.97144 C521.81607,135.02024 533.54798,134.87214 540.83546,134.64307 C555.60365,134.17877 554.81407,134.17349 570.0958,134.83687 C579.98988,135.26636 585.6978,135.28419 594.38741,134.91277 C595.90563,134.84787 596.71305,134.68113 596.18167,134.54226 C595.6503,134.40345 595.21553,134.03011 595.21553,133.71272 C595.21553,133.33201 596.76522,133.24505 599.77021,133.45721 C602.27528,133.63411 609.79049,134.03059 616.47069,134.33831 C623.15087,134.64607 631.72195,135.15271 635.51751,135.46419 C650.76639,136.71565 656.58197,137.15672 664.50179,137.66228 C684.30867,138.92683 694.74993,139.43069 705.63192,139.64715 C710.64207,139.74685 716.85296,139.99768 719.43397,140.20452 C722.01492,140.4114 725.86571,140.55838 727.99124,140.53113 C730.11673,140.50433 734.34017,140.72591 737.37664,141.02459 C740.41307,141.32327 750.24705,141.67703 759.22977,141.81077 C768.21258,141.94451 776.65946,142.29607 778.00057,142.59202 C779.34173,142.88797 782.39085,143.26468 784.77645,143.42913 C787.16204,143.59358 789.89486,143.85594 790.84935,144.01214 C794.1137,144.54627 799.21009,144.90945 806.66292,145.13899 C813.22586,145.34109 819.60267,145.8262 829.0222,146.84002 C830.54046,147.00335 832.65218,147.20638 833.71492,147.29109 C834.77767,147.37589 837.51048,147.60462 839.78782,147.79954 C842.06517,147.99446 845.91561,148.30589 848.34437,148.49168 C850.77308,148.67737 852.8848,148.90589 853.03704,148.99944 C853.18929,149.09304 854.72669,149.31961 856.45355,149.50325 C858.1804,149.6868 859.95721,149.97664 860.40189,150.14734 C860.84666,150.318 863.40877,150.53162 866.09545,150.6221 C873.47455,150.87049 873.46484,150.86897 873.46484,151.76131 C873.46484,152.21678 873.72792,152.58943 874.04945,152.58943 C874.37109,152.58943 874.45453,152.29881 874.23495,151.94358 C873.96278,151.50315 874.14245,151.41531 874.7996,151.66751 C875.32978,151.87097 876.31137,152.03738 876.98105,152.03738 C877.80282,152.03738 878.22563,152.39627 878.28173,153.14153 C878.38113,154.46131 878.08153,154.52464 876.97445,153.41756 C875.81889,152.26199 874.52616,152.34861 874.91445,153.55559 C875.10566,154.15008 875.04589,154.2844 874.75907,153.90476 C874.4414,153.4843 872.88622,153.40535 869.87631,153.65696 C864.6951,154.09002 860.78431,153.97083 853.58987,153.16062 C850.70526,152.83577 846.97869,152.4364 845.30862,152.27307 C843.63861,152.10984 841.98216,151.88152 841.62781,151.7656 C841.27337,151.64978 840.83875,151.93177 840.66209,152.39221 C840.42415,153.01233 839.89988,153.13264 838.64085,152.85608 C836.66326,152.42171 835.39212,152.25657 830.1264,151.74973 C828.00086,151.54514 826.11317,151.28636 825.93157,151.17469 C825.54456,150.93675 818.16033,150.89763 808.0431,151.07999 C801.62401,151.19561 797.09803,150.8796 793.72113,150.07999 C791.81834,149.62945 778.50672,149.43453 778.50672,149.85728 C778.50672,150.07467 780.18367,150.43199 782.23328,150.65138 C784.28289,150.87081 786.45672,151.14825 787.064,151.26803 C791.32396,152.10826 802.73275,153.04996 811.9077,153.31871 C814.03319,153.38101 816.03494,153.60011 816.35599,153.80567 C816.88983,154.14752 833.79539,155.46578 834.70247,155.23634 C834.91839,155.18164 836.95838,155.31074 839.23572,155.5232 C842.75653,155.85157 851.74769,156.51241 854.00394,156.60865 C854.81961,156.64335 854.9158,157.35601 854.16717,157.81866 C853.62996,158.15069 849.46834,158.22735 845.70223,157.97457 C844.55223,157.89737 843.40946,157.50724 843.16263,157.10758 C842.82879,156.56695 841.88011,156.47667 839.45657,156.75499 C837.66507,156.96075 836.03299,157.22789 835.82972,157.34869 C835.6265,157.46954 835.08338,157.19151 834.62274,156.73092 C834.16214,156.27037 833.65384,156.10621 833.49315,156.36627 C833.18128,156.87081 822.03831,156.65592 818.80872,156.08311 C817.74593,155.89459 815.87269,155.68912 814.64588,155.62652 C813.41907,155.56392 811.86634,155.21886 811.19539,154.85977 C810.2199,154.33775 809.97537,154.35465 809.97537,154.94407 C809.97537,155.37796 809.23724,155.74075 808.18113,155.82601 C803.81575,156.17825 797.70555,156.14485 792.86087,155.74231 C789.37635,155.45281 787.88865,155.48899 788.42821,155.85037 C790.60443,157.3075 786.52152,158.02615 780.16297,157.30511 C774.52601,156.66585 773.51834,156.63221 771.08206,157.00193 C769.82513,157.1927 768.06239,157.15198 767.16483,156.91143 C764.80052,156.27793 752.51097,155.15605 747.03807,155.07417 C744.45706,155.03557 740.7305,154.83403 738.75682,154.62646 C736.78314,154.4189 732.80814,154.12153 729.92352,153.96567 C727.0389,153.80981 720.20687,153.31704 714.74124,152.87061 C709.27567,152.42417 701.14608,151.89194 696.67552,151.68794 C689.39041,151.35547 688.51073,151.41235 688.19451,152.23638 C687.89378,153.02012 686.93426,153.15229 681.69261,153.13228 C678.31053,153.11958 674.42547,153.3103 673.05907,153.55659 L670.57469,154.00449 L674.71532,154.62007 C676.99266,154.95864 679.72547,155.22886 680.78822,155.22051 C681.85096,155.21151 686.19862,155.59009 690.44964,156.0603 C694.70067,156.53047 702.77489,157.19258 708.39232,157.53159 C714.00975,157.87056 719.15848,158.2668 719.83387,158.41216 C720.50936,158.55752 726.0992,158.91831 732.25574,159.21387 C743.32069,159.74517 751.07381,160.17871 756.97552,160.59629 C758.64559,160.71445 764.37469,161.0627 769.70687,161.37026 C775.03909,161.67778 779.75941,162.04004 780.19642,162.17524 C780.63353,162.31045 781.48797,162.60898 782.09525,162.83862 C782.70252,163.06826 784.15452,163.32505 785.32186,163.40942 C786.48914,163.49382 787.73231,163.95664 788.08436,164.43809 C788.59266,165.13325 790.03094,165.34282 795.07127,165.45615 C798.56204,165.53465 801.66654,165.75171 801.9702,165.93833 C802.27386,166.125 804.38558,166.42353 806.66292,166.60171 C817.54945,167.45352 828.43231,168.14536 833.43885,168.30391 C836.47532,168.40011 842.9347,168.9126 847.793,169.44287 C852.6513,169.9731 858.86224,170.4894 861.59505,170.59019 C880.50937,171.28774 895.61562,172.16621 903.55326,173.03013 C906.28608,173.32759 911.07611,173.73071 914.19779,173.92598 C917.31952,174.12129 920.00487,174.49346 920.16527,174.75298 C920.32568,175.0126 919.6349,175.24512 918.63007,175.26982 C917.62533,175.29472 916.1019,175.36552 915.24467,175.42783 C914.38744,175.49003 913.57812,175.36623 913.44604,175.15259 C913.31405,174.93901 912.28813,175.01772 911.16615,175.32749 C910.02748,175.64189 907.52944,175.72969 905.51166,175.52627 C903.52362,175.32578 892.95331,175.06455 882.02211,174.94565 C871.09086,174.82681 858.04793,174.56914 853.03778,174.3731 C844.10745,174.02363 841.57689,174.2374 847.43519,174.84629 C849.06029,175.01523 850.51009,175.27363 850.65696,175.42051 C851.05071,175.81426 849.03192,176.78843 847.35731,177.01265 C845.40599,177.27397 844.79027,177.97334 846.45877,178.03325 C847.19261,178.05965 851.02269,178.31269 854.97005,178.5957 C858.91746,178.87871 866.6811,179.25703 872.22265,179.43647 C881.33212,179.7314 882.29814,179.85542 882.29814,180.73027 C882.29814,181.94458 884.5207,182.23174 897.91513,182.748 C903.3162,182.9562 907.86488,183.33613 908.02323,183.59238 C908.18163,183.84858 909.3998,184.05825 910.73036,184.05825 C915.26596,184.05825 913.99457,185.58271 908.42314,186.82471 C906.85053,187.17524 904.73881,187.41636 903.73046,187.36045 C897.00649,186.98784 898.77026,188.07485 906.31371,188.95249 C909.35014,189.30581 913.57358,189.71519 915.69906,189.86226 C917.8246,190.00933 921.67538,190.37729 924.25634,190.67993 C926.83735,190.98262 932.05453,191.39409 935.85009,191.59429 C940.52406,191.84087 942.92924,192.19185 943.30317,192.68179 C943.60902,193.08262 945.57875,193.56553 947.71982,193.7647 C949.84535,193.9624 951.83285,194.42749 952.13651,194.79824 C952.44013,195.16899 954.50297,195.63994 956.72065,195.84477 C958.93832,196.04966 961.30961,196.58213 961.99027,197.02808 C962.77021,197.53911 965.1579,197.92876 968.4477,198.08184 C975.5411,198.41196 981.0987,199.03408 981.4068,199.53252 C981.7305,200.05635 976.8964,200.80464 976.1537,200.34565 C975.8491,200.15742 975.6,200.23892 975.6,200.52666 C975.6,200.81445 976.4696,201.21304 977.5323,201.4124 C979.6305,201.80602 980.0272,202.49281 978.4985,203.08543 C976.6945,203.78477 979.2191,204.89246 984.8948,205.89177 C989.6619,206.73112 992.6745,207.7685 990.4786,207.81455 C988.4147,207.85785 991.6009,208.83101 994.9177,209.17038 C996.8868,209.37185 998.7867,209.77634 999.1396,210.06922 C999.4925,210.36211 1001.3525,210.85479 1003.2729,211.16408 C1008.6089,212.02341 1008.5512,212.71385 1003.1078,213.14168 C1001.074,213.30152 999.2146,213.77509 998.6554,214.27562 C997.8709,214.9779 996.9116,215.06192 993.4107,214.73497 C986.2919,214.07015 984.8825,214.19951 983.8141,215.61589 C983.2912,216.30908 982.9709,217.05002 983.1021,217.26242 C983.2334,217.47481 985.0151,217.82248 987.0615,218.03501 C989.1079,218.24755 991.0307,218.61643 991.3344,218.85478 C991.638,219.09314 993.0665,219.46383 994.5088,219.67854 C998.4671,220.26781 997.6547,221.04773 993.0826,221.04773 C990.8558,221.04773 988.8459,221.23406 988.616,221.4618 C988.3862,221.68952 986.0705,221.87585 983.4701,221.87585 C980.1821,221.87585 978.6699,222.08603 978.5053,222.56596 C978.3429,223.0389 978.9344,223.25702 980.3847,223.25914 C981.5487,223.26012 983.3706,223.49011 984.4333,223.76864 C985.4961,224.04718 988.4685,224.43226 991.0387,224.62436 C993.6089,224.81647 995.9919,225.20613 996.3343,225.49027 C996.6766,225.77441 997.1015,225.86214 997.2784,225.68523 C997.4553,225.50832 998.1778,225.56995 998.8839,225.8222 C999.8751,226.17631 999.2869,226.36098 996.3031,226.63251 C992.782,226.95294 988.766,227.75863 986.6416,228.57086 C985.2935,229.0863 987.3901,229.65286 993.6807,230.47297 C996.793,230.87872 999.3395,231.35808 999.3395,231.53818 C999.3395,231.71829 1000.9544,231.76283 1002.9281,231.63718 C1005.812,231.45353 1006.5166,231.56708 1006.5166,232.21555 C1006.5166,233.21627 1004.7692,234.85272 1003.7127,234.84135 C1003.0636,234.83435 1003.0712,234.74041 1003.7557,234.29771 C1004.4604,233.8423 1004.4373,233.76128 1003.6004,233.75409 C1003.0595,233.74909 1002.4689,234.13118 1002.2881,234.6024 C1002.008,235.33238 1001.0098,235.41645 995.5424,235.17048 C988.6912,234.86224 987.0073,235.22758 988.2695,236.74842 C990.3835,239.29568 999.0042,242.02686 1004.9304,242.02686 C1008.5108,242.02686 1010.3807,242.69647 1010.3807,243.97857 C1010.3807,244.62035 1009.4975,244.78456 1006.1021,244.7741 C1003.7488,244.7671 1000.8297,244.49927 999.6151,244.17946 C998.4005,243.85966 992.6778,243.48545 986.898,243.34789 C976.677,243.10464 976.3868,243.12819 976.3055,244.2077 C976.2255,245.26942 976.8994,246.0341 978.0839,246.22575 C978.3876,246.27485 980.7693,246.71705 983.3767,247.20835 C991.9098,248.81624 999.4864,249.79567 1007.241,250.29336 C1014.4255,250.75445 1016.8757,251.38673 1016.1333,252.58798 C1015.9638,252.86217 1015.5878,252.93978 1015.2976,252.76043 C1015.0074,252.58108 1014.8382,252.76343 1014.9217,253.16549 C1015.0057,253.56985 1014.6443,253.8628 1014.1132,253.82094 C1013.5851,253.77934 1013.2723,253.9384 1013.4182,254.17446 C1013.5642,254.41053 1012.8402,254.76189 1011.8094,254.95527 C1009.5814,255.37324 1009.0531,256.36838 1010.1942,257.99758 C1010.8023,258.86572 1010.8672,259.38336 1010.4334,259.90602 C1009.722,260.76313 1010.1866,261.34973 1011.5769,261.34973 C1012.1336,261.34973 1012.589,261.45363 1012.589,261.58061 C1012.589,261.70761 1012.7539,262.24126 1012.9555,262.76651 C1013.2922,263.64387 1012.9215,263.69175 1008.4008,263.35541 C1005.6942,263.15405 1002.548,262.84165 1001.4093,262.66119 C999.7617,262.40007 999.339,262.50887 999.339,263.19418 C999.339,263.66778 998.9386,264.27937 998.4491,264.55328 C997.1853,265.26056 997.9441,268.44159 999.5291,269.08091 C1000.6623,269.53802 1000.6665,269.5645 999.6151,269.63477 C998.5109,269.70857 998.5109,269.70857 999.6151,270.18304 C1000.6921,270.64587 999.1876,270.8437 993.5422,270.98155 C991.1873,271.03905 989.4015,271.78219 989.4015,272.70461 C989.4015,273.19755 988.8295,273.49837 987.8833,273.50307 C987.0483,273.50807 985.8003,273.66192 985.11,273.84686 C983.9329,274.16226 983.9157,274.22921 984.834,274.92593 C985.3724,275.33448 986.4926,275.67664 987.3233,275.6863 C988.1539,275.6963 990.4726,276.57339 992.4759,277.63614 C994.4964,278.70805 996.9221,279.56844 997.9237,279.56844 C1001.2694,279.56844 1006.488,280.27134 1006.2309,280.68733 C1006.0906,280.91431 1006.3984,281.06596 1006.9149,281.02433 C1007.4314,280.98273 1007.9426,281.37676 1008.0508,281.90001 C1008.3021,283.11476 1005.0423,285.20898 1003.3609,284.91296 C1002.6883,284.79454 1002.0476,284.96876 1001.9372,285.29996 C1001.6769,286.08095 995.2337,286.30173 992.6566,285.61798 C991.5622,285.32763 985.9102,285.02273 980.0967,284.94044 C970.2682,284.80131 967.37001,285.08316 971.0448,285.82074 C971.8799,285.98835 973.681,286.37838 975.0474,286.68749 C976.4138,286.99659 978.5876,287.26031 979.8781,287.27353 C981.1686,287.28683 982.2245,287.54602 982.2245,287.84966 C982.2245,288.15331 982.6135,288.40175 983.0889,288.40175 C983.5643,288.40175 984.4634,288.6747 985.0866,289.00829 C986.2077,289.60824 986.2057,289.62193 984.9123,290.26678 C982.6475,291.39594 983.3493,292.46116 987.1555,293.67136 C989.1084,294.2923 990.8226,295.16184 990.9648,295.60364 C991.107,296.04545 991.443,296.55101 991.7114,296.72711 C992.5558,297.28119 991.545,298.98453 990.5893,298.61781 C990.1064,298.43249 989.8636,298.43326 990.0499,298.61981 C990.2362,298.80609 989.7624,299.58472 988.9969,300.35011 C987.9902,301.3569 986.952,301.767 985.2427,301.83316 C983.9431,301.88346 982.9802,302.08707 983.103,302.28565 C983.2257,302.48422 980.9485,302.52494 978.0425,302.37615 C973.8177,302.15984 972.5732,302.27336 971.8328,302.94255 C970.8046,303.87185 965.3827,304.25494 962.55448,303.59813 C961.47455,303.34734 960.68642,303.42476 960.4516,303.8047 C960.24501,304.13894 959.48988,304.41239 958.77352,304.41239 C957.11259,304.41239 955.7245,304.94197 955.7245,305.57563 C955.7245,305.84678 956.0848,306.06864 956.52519,306.06864 C956.96557,306.06864 957.53671,306.44533 957.79433,306.90573 C958.085,307.42512 960.24315,308.1281 963.4806,308.75799 C969.8592,309.999 974.5548,311.89636 974.1108,313.05335 C973.9403,313.4977 973.4472,313.7256 973.0152,313.5598 C972.5831,313.394 972.3684,313.483 972.538,313.75736 C972.7077,314.03182 972.1952,315.0304 971.3991,315.97644 C970.3337,317.24258 969.6589,317.60354 968.842,317.34424 C968.2269,317.14904 967.8706,317.21616 968.0428,317.49478 C968.2137,317.77131 967.48949,318.02205 966.43339,318.05199 C965.37733,318.08189 962.76947,318.53376 960.63812,319.05606 L956.76303,320.00571 L957.99628,321.3184 C958.6745,322.04039 959.45917,322.63109 959.73993,322.63109 C960.02064,322.63109 961.10292,323.03569 962.14506,323.53019 C963.9619,324.39235 964.00521,324.48187 963.20072,325.70973 C962.67206,326.51655 962.56703,327.11703 962.91669,327.33315 C963.22196,327.5218 963.31234,327.93393 963.11762,328.249 C962.8892,328.6186 962.59213,328.55609 962.28046,328.07283 C961.96703,327.58681 961.65199,327.5216 961.38334,327.88711 C961.1556,328.19694 960.22396,328.80986 959.31303,329.24918 L957.65678,330.04793 L959.40409,330.23557 C961.29599,330.43873 962.30741,331.85544 960.93617,332.38163 C960.47274,332.55947 959.95619,332.56768 959.78842,332.39983 C959.6206,332.23202 958.65634,332.55922 957.6456,333.12692 C956.63485,333.69463 954.86371,334.33625 953.70976,334.55273 C952.5557,334.76922 951.27704,335.28086 950.86825,335.68973 C949.8997,336.65819 949.52064,336.63685 944.39081,335.32485 C939.787,334.14739 938.4893,334.25715 936.60038,335.98368 C935.53485,336.95759 935.10492,337.00556 932.22035,336.47232 C928.43651,335.77284 921.308,335.68324 921.7141,336.34026 C921.8702,336.59284 923.81024,337.10853 926.02533,337.48623 C931.66874,338.44853 932.30385,338.65524 931.37714,339.22799 C929.77074,340.22079 936.96386,342.56442 943.99374,343.33868 C945.89208,343.54776 947.56566,343.91361 947.71278,344.15169 C947.85995,344.38978 947.45927,345.24696 946.82245,346.05655 C945.75292,347.41627 945.73241,347.6035 946.55394,348.51126 C947.04306,349.05176 947.4433,349.62986 947.4433,349.79594 C947.4433,350.47823 938.09467,349.49644 935.02143,348.4914 C930.60219,347.04617 921.6538,345.99137 920.82694,346.8182 C920.38969,347.25553 920.38578,347.63108 920.81324,348.14627 C921.39054,348.84188 922.27589,349.13943 929.63849,351.11231 C931.93458,351.72757 933.08897,352.31511 933.08897,352.86843 C933.08897,353.56772 932.43756,353.64092 928.99273,353.32876 C926.36832,353.09095 924.76964,353.16277 924.54347,353.52865 C924.34937,353.84274 924.49467,354.09974 924.86715,354.09974 C925.23936,354.09974 925.41529,354.22833 925.25811,354.38549 C924.888,354.75562 917.0691,353.11475 916.29166,352.50381 C915.68038,352.02344 907.61847,350.78171 905.89898,350.90309 C905.36759,350.94059 904.93282,351.2822 904.93282,351.66223 C904.93282,352.04226 904.80431,352.68806 904.64727,353.09734 C904.37594,353.8044 911.11817,355.23388 922.73639,356.93257 C924.4818,357.18776 926.81021,357.77274 927.91065,358.23252 C929.01104,358.69229 930.68844,359.06985 931.63819,359.07155 C934.13853,359.07655 937.7297,360.16943 937.14952,360.74962 C936.88082,361.01831 933.51876,361.30896 929.67818,361.3955 C925.83761,361.482 922.73663,361.595 922.78707,361.64652 C922.83737,361.69802 924.10645,362.22243 925.60689,362.81182 C928.21993,363.8382 928.28238,363.91158 927.08834,364.55062 C926.15318,365.05109 925.15392,365.07031 923.08927,364.62742 C919.72916,363.90682 919.28692,363.89727 919.28692,364.54532 C919.28692,364.82484 920.0294,365.21662 920.93683,365.41593 C923.95484,366.07879 923.30123,366.79752 919.68043,366.79752 C917.5731,366.79752 915.44215,367.14771 914.40699,367.6641 C913.35958,368.18662 912.18482,368.37673 911.4481,368.14291 C909.87315,367.64305 883.95211,367.45241 884.25523,367.94293 C884.89742,368.98205 877.65494,368.97672 871.47511,367.93293 C858.96011,365.82029 848.31216,364.61942 841.44341,364.54596 C837.6478,364.50536 831.93379,364.13078 828.74551,363.71351 C825.55723,363.29625 819.87729,362.69872 816.12344,362.38565 C812.36953,362.07259 809.13984,361.7209 808.94634,361.60411 C808.75283,361.48732 806.73125,361.23317 804.45391,361.03933 C802.17656,360.84548 799.44375,360.5818 798.38101,360.45334 C796.1687,360.18595 786.0959,359.62431 778.78208,359.36056 C773.49146,359.16976 765.45234,358.66196 760.01133,358.17489 C758.18945,358.01179 751.10898,357.7724 744.27695,357.6429 C737.44497,357.51339 729.37075,357.20381 726.33433,356.95495 C723.29785,356.70607 714.90005,356.52716 707.67251,356.55738 C696.74238,356.60298 694.44346,356.7492 694.0085,357.42599 C693.5647,358.11638 693.41025,358.12295 692.98921,357.46939 C692.65869,356.95626 691.94834,356.80803 690.86143,357.02542 C689.96187,357.20533 688.95869,357.08062 688.62554,356.74747 C688.29316,356.41511 687.20107,356.0908 686.19868,356.02674 C685.19624,355.96264 683.8792,355.76317 683.27192,355.58335 C679.96343,354.60365 676.51626,354.31877 675.12749,354.91027 C674.0127,355.3851 671.23008,354.82417 671.61455,354.20209 C671.75615,353.97292 669.09561,353.71864 665.70225,353.63703 C656.5644,353.41728 655.6168,353.31686 654.58267,352.45856 C653.74199,351.76087 653.65811,351.79296 653.82446,352.74854 C653.95127,353.47686 653.74476,353.75983 653.18345,353.62688 C652.72798,353.51901 651.79634,353.42585 651.11314,353.41985 C650.42993,353.41385 649.87095,353.21815 649.87095,352.98495 C649.87095,352.75174 649.47066,352.40733 648.9814,352.21958 C648.33541,351.97169 648.18248,352.11456 648.42297,352.74127 C648.6512,353.33595 648.54155,353.46921 648.07035,353.16983 C647.69428,352.93086 645.02645,352.65733 642.14182,352.56199 C636.07532,352.36147 636.97709,352.36408 608.46483,352.46459 C596.47084,352.50689 585.12158,352.36208 583.24417,352.14278 C581.36682,351.92349 579.41306,351.90437 578.90249,352.10018 C577.96284,352.46076 559.92766,353.17269 554.38663,353.06794 C550.05328,352.98604 545.13876,355.53357 547.87235,356.44476 C548.27984,356.58058 547.99799,356.97125 547.18224,357.40155 C546.42396,357.80152 545.66562,358.33849 545.497,358.59479 C544.88773,359.52113 540.19979,360.03797 538.86865,359.32557 C538.02977,358.87662 535.80687,358.71538 532.31125,358.84992 C529.40265,358.96187 519.84908,359.18455 511.08109,359.34475 C502.31309,359.50495 494.53596,359.78745 493.79858,359.97251 C493.06119,360.15758 489.9271,360.34703 486.83392,360.3935 C483.74072,360.44 480.71307,360.75723 480.10577,361.09853 C479.01917,361.7092 473.8992,362.71161 473.04205,362.48148 C471.98575,362.19788 470.02445,362.26917 468.23602,362.65618 C467.17325,362.88616 465.80686,363.03269 465.19956,362.98182 C464.59228,362.93092 463.59853,362.84549 462.99124,362.79192 C462.38395,362.73842 459.52693,362.98627 456.6423,363.34288 C453.75767,363.69948 450.32347,363.98608 449.01074,363.97977 C447.69801,363.97377 446.3316,364.20336 445.97429,364.49067 C445.61697,364.77797 444.5172,365.18569 443.53035,365.3967 C442.06175,365.71073 441.73609,365.61079 441.73609,364.84607 C441.73609,364.01839 441.27937,363.95636 437.73349,364.30251 C435.53206,364.51742 429.75591,364.7505 424.89759,364.82048 C420.03927,364.89048 414.72608,365.23956 413.09049,365.59622 C411.45492,365.95289 409.99598,366.24471 409.84843,366.24471 C409.70087,366.24471 409.88933,366.61737 410.26742,367.07284 C410.64543,367.52831 411.7938,367.90095 412.81938,367.90095 C413.84496,367.90095 414.68407,368.00486 414.68407,368.13184 C414.68407,368.25883 414.83487,368.75571 415.01918,369.23601 C415.47877,370.4337 413.92431,370.37482 412.69756,369.14801 C412.00255,368.453 411.67278,368.3775 411.50681,368.87541 C411.38056,369.25414 411.05006,369.4236 410.77235,369.25196 C410.4947,369.08047 410.26748,369.14103 410.26748,369.38668 C410.26748,369.63234 409.70849,369.86378 409.02529,369.90101 C408.34209,369.93821 404.55343,370.24988 400.60604,370.59354 C396.65866,370.9372 388.70868,371.31788 382.93942,371.43951 C377.17017,371.56112 371.82877,371.79684 371.06966,371.96333 C368.4976,372.52744 354.3561,373.83554 346.77805,374.21034 C332.73621,374.90482 322.09049,376.91313 319.89533,379.28173 C319.20868,380.02264 317.99883,380.62088 317.13001,380.64912 C309.98573,380.88128 300.06461,381.62531 295.71048,382.25544 C293.88861,382.51911 290.69256,382.88717 288.60815,383.07337 C286.52374,383.25957 283.5707,383.64852 282.04584,383.93771 C280.52097,384.22689 279.18304,384.4635 279.07266,384.4635 C278.96229,384.4635 278.87198,383.82774 278.87198,383.05071 L278.87214,383.05161 Z M278.87214,378.02843 C278.87214,377.4245 278.6276,377.37936 277.78853,377.82841 C277.1411,378.17491 276.83372,378.74397 277.02488,379.24213 C277.27143,379.88462 277.52004,379.93052 278.10849,379.44215 C278.52849,379.09358 278.87214,378.45741 278.87214,378.02843 Z M371.89794,369.81717 C374.05783,369.04246 374.00334,369.03114 369.41357,369.30027 C358.90327,369.91657 355.61152,370.2288 355.61152,370.60946 C355.61152,371.32971 369.57479,370.65036 371.89794,369.81717 Z M115.45589,363.15018 C115.45589,363.03084 115.08323,362.93321 114.62776,362.93321 C114.17229,362.93321 113.79964,363.17385 113.79964,363.46796 C113.79964,363.76207 114.17229,363.85971 114.62776,363.68493 C115.08323,363.51015 115.45589,363.26951 115.45589,363.15018 Z M155.48183,361.27696 C155.67454,360.96514 155.22238,360.72488 154.44282,360.72488 C153.68371,360.72488 152.90908,360.97331 152.72141,361.27696 C152.5287,361.58878 152.98086,361.82905 153.76042,361.82905 C154.51953,361.82905 155.29416,361.58061 155.48183,361.27696 Z M129.25793,358.45219 C129.25793,357.88254 128.59689,357.82909 127.3708,358.29957 C125.98546,358.83118 126.35728,359.49441 127.87772,359.20375 C128.63684,359.05864 129.25793,358.72044 129.25793,358.45219 Z M441.64568,358.36229 C443.52952,357.83754 443.78819,357.63596 442.86002,357.41597 C441.38687,357.06682 423.82168,357.80468 414.40824,358.61117 C411.85025,358.83032 431.6051,359.36542 435.6634,359.18692 C437.6371,359.10012 440.32912,358.72902 441.64568,358.36229 Z M460.78312,356.66319 C461.39042,356.51952 460.27245,356.4222 458.29876,356.44695 C453.58793,356.50605 451.72317,357.01319 454.71022,357.423 C455.9248,357.58963 457.53965,357.54562 458.29876,357.3252 C459.05787,357.10478 460.17584,356.80687 460.78312,356.6632 L460.78312,356.66319 Z M108.46199,356.82539 C109.59876,356.79219 109.59136,356.76339 108.31485,356.25338 C106.80963,355.65202 105.51841,355.95156 105.51841,356.90213 C105.51841,357.2484 105.91054,357.38013 106.39169,357.1955 C106.87198,357.01119 107.80362,356.84465 108.46199,356.82539 Z M469.07675,356.20391 C469.2244,356.05624 468.24171,355.8937 466.89297,355.84268 C465.54424,355.79168 464.26906,356.02768 464.05925,356.36716 C463.79113,356.80098 464.44004,356.90832 466.24302,356.72838 C467.6539,356.58759 468.92908,356.35158 469.07675,356.20391 L469.07675,356.20391 Z M900.7924,349.68332 C901.00368,349.34145 900.12272,349.15612 898.47863,349.19657 C896.12164,349.25457 896.00954,349.30918 897.4799,349.68332 C899.89567,350.29803 900.41251,350.29803 900.7924,349.68332 Z M49.861655,341.57705 C49.463115,341.41757 48.986955,341.43718 48.803505,341.62065 C48.620045,341.80411 48.946115,341.93459 49.528105,341.91062 C50.171255,341.88412 50.302065,341.75331 49.861655,341.57708 L49.861655,341.57705 Z M56.383115,340.85001 C57.492665,340.49468 57.546795,340.40482 56.659165,340.39177 C56.051865,340.38277 55.058125,340.58906 54.450835,340.85001 C53.044005,341.45456 54.495435,341.45456 56.383115,340.85001 Z M63.791075,341.067 C64.271385,340.88268 64.664355,340.28523 64.664355,339.73932 C64.664355,338.89366 64.317105,338.79016 62.318005,339.04001 C59.781155,339.35708 58.125725,340.29793 60.104695,340.29793 C60.754795,340.29793 61.440235,340.54637 61.627905,340.85001 C62.020635,341.48548 62.559615,341.53955 63.791075,341.067 L63.791075,341.067 Z M960.69328,331.46462 C960.69328,331.16098 960.25851,330.91635 959.72716,330.921 C958.90153,330.928 958.88141,331.0072 959.58912,331.46462 C960.63102,332.13795 960.69328,332.13795 960.69328,331.46462 Z M77.46574,309.00421 C77.06721,308.84474 76.59103,308.86435 76.40759,309.04781 C76.22414,309.23127 76.55021,309.36174 77.1322,309.33778 C77.77534,309.31118 77.90616,309.18046 77.46574,309.00423 L77.46574,309.00421 Z M72.94558,307.39347 C72.94558,306.49364 71.41011,306.39245 69.39299,307.15936 C67.197045,307.99425 67.718195,308.58175 70.46121,308.36359 C72.12789,308.23104 72.94558,307.91173 72.94558,307.39347 Z M83.20027,307.79174 C82.649,306.89976 80.67473,306.67228 80.67473,307.50075 C80.67473,307.96567 81.24155,308.27718 82.08751,308.27718 C82.86454,308.27718 83.36529,308.05873 83.20027,307.79174 L83.20027,307.79174 Z M79.01848,307.17302 C79.63446,306.77495 79.31626,306.63568 77.77629,306.62939 C76.63763,306.62439 75.70599,306.86938 75.70599,307.17302 C75.70599,307.87621 77.93038,307.87621 79.01848,307.17302 Z M999.339,242.57944 C999.339,242.2758 999.0906,242.02736 998.7869,242.02736 C998.4833,242.02736 998.2349,242.2758 998.2349,242.57944 C998.2349,242.88308 998.4833,243.13152 998.7869,243.13152 C999.0906,243.13152 999.339,242.88308 999.339,242.57944 Z M1003.3416,232.27633 C1002.9621,232.12318 1002.341,232.12318 1001.9615,232.27633 C1001.5819,232.42949 1001.8925,232.5548 1002.6515,232.5548 C1003.4107,232.5548 1003.7212,232.42949 1003.3416,232.27633 Z M995.0604,225.62736 C994.3772,225.49577 993.2593,225.49577 992.5761,225.62736 C991.8929,225.75895 992.4518,225.86662 993.8182,225.86662 C995.1846,225.86662 995.7436,225.75895 995.0604,225.62736 L995.0604,225.62736 Z M969.5266,221.17057 C969.5266,220.93421 967.47702,220.4462 964.97194,220.0861 C962.46686,219.72601 959.8194,219.25917 959.08873,219.04869 C958.26373,218.81104 957.88815,218.87301 958.09782,219.21221 C958.28351,219.51264 960.62037,220.07451 963.29088,220.46081 C965.96144,220.8471 968.3948,221.24192 968.6985,221.33816 C969.0021,221.43446 969.3127,221.53277 969.3886,221.55674 C969.4646,221.58064 969.5266,221.40694 969.5266,221.17057 L969.5266,221.17057 Z M164.31514,216.07951 C165.30106,215.65584 165.26021,215.60087 163.93366,215.56624 C163.11655,215.54484 162.29447,215.77586 162.10681,216.07951 C161.69946,216.73861 162.78133,216.73861 164.31514,216.07951 L164.31514,216.07951 Z M965.66203,212.84497 C965.66203,212.58419 963.16876,212.08732 960.12145,211.7408 C953.25758,210.9603 952.02501,210.94455 952.72677,211.6463 C953.0213,211.94084 955.9901,212.40298 959.32413,212.67331 C962.65817,212.94362 965.44811,213.19952 965.52404,213.24196 C965.59994,213.28446 965.66203,213.10577 965.66203,212.845 L965.66203,212.84497 Z M133.34168,206.23405 C133.49807,205.98101 133.26438,205.77398 132.82218,205.77398 C132.38007,205.77398 132.01834,205.98101 132.01834,206.23405 C132.01834,206.48709 132.25212,206.69412 132.53784,206.69412 C132.82356,206.69412 133.18529,206.48709 133.34168,206.23405 Z M207.205,205.21282 C206.80646,205.05334 206.33029,205.07294 206.14684,205.25632 C205.96339,205.43978 206.28946,205.57027 206.87144,205.54629 C207.5146,205.51969 207.64541,205.38898 207.205,205.21275 L207.205,205.21282 Z M121.52879,204.48579 C121.52879,204.18214 121.09402,203.93751 120.56265,203.94215 C119.73697,203.94915 119.7169,204.02835 120.42462,204.48579 C121.46651,205.15911 121.52879,205.15911 121.52879,204.48579 L121.52879,204.48579 Z M123.73711,203.62508 C123.73711,203.49118 123.48868,203.38163 123.18503,203.38163 C122.88139,203.38163 122.63295,203.64472 122.63295,203.96628 C122.63295,204.28786 122.88139,204.39741 123.18503,204.20974 C123.48868,204.02209 123.73711,203.75898 123.73711,203.62508 L123.73711,203.62508 Z M155.20578,199.78113 C155.96489,199.56892 158.32505,199.18796 160.45057,198.93455 C162.57607,198.68113 165.18467,198.21116 166.24742,197.89021 C167.31017,197.56926 168.17971,197.32742 168.17971,197.35281 C168.17971,197.56443 171.96131,196.38308 173.83854,195.58503 C176.68671,194.37419 176.86659,193.44417 174.25261,193.44417 C172.90308,193.44417 172.32032,193.19441 172.32032,192.61604 C172.32032,191.76702 174.79123,191.43137 178.89276,191.72327 C180.67959,191.85042 185.77772,190.8989 186.94493,190.22043 C187.81675,189.7137 185.03066,189.14231 181.39634,189.08254 C179.03199,189.04344 177.01738,189.43235 174.52865,190.40769 C172.59163,191.16682 170.49492,191.79172 169.8693,191.79636 C168.96327,191.80336 168.89495,191.90803 169.53355,192.31199 C169.97452,192.59099 170.5335,192.6967 170.77573,192.547 C171.01797,192.39729 171.21616,192.5099 171.21616,192.7968 C171.21616,193.29114 170.0077,193.64016 165.79096,194.36384 C164.78079,194.53718 163.82014,195.02859 163.65617,195.45588 C163.41242,196.09109 163.19998,196.10432 162.49105,195.52858 C161.76491,194.93879 161.67686,194.96574 161.94918,195.69425 C162.18704,196.33068 161.95518,196.53942 161.0864,196.47199 C160.43305,196.42129 159.07412,196.60519 158.06655,196.88063 C156.79618,197.22795 155.99233,197.18034 155.44417,196.72541 C154.9996,196.35646 154.6537,196.30773 154.6537,196.61408 C154.6537,197.22311 150.4472,198.96501 148.97641,198.96501 C148.45517,198.96501 148.02872,199.30465 148.02872,199.71979 C148.02872,200.28175 148.76904,200.43527 150.92715,200.32077 C152.52129,200.23617 154.44667,199.99342 155.20578,199.78117 L155.20578,199.78113 Z M177.91662,179.75925 C177.51832,179.62649 176.92996,179.78025 176.60914,180.1012 C176.19946,180.51086 176.41501,180.58269 177.33332,180.34255 C178.07984,180.14734 178.3301,179.8971 177.91662,179.75925 Z M844.754991,177.5718 C844.754991,177.34407 844.00021,177.10496 843.07892,177.04041 C842.12023,176.97321 841.5444,177.15027 841.73239,177.45447 C842.1173,178.07722 844.75661,178.17971 844.754991,177.5718 Z M179.49739,174.09382 L180.8776,174.05132 L179.58981,173.53516 C178.13503,172.95201 175.63281,173.40123 175.63281,174.24551 C175.63281,174.55333 176.18806,174.65333 176.875,174.46924 C177.5582,174.28614 178.73827,174.11724 179.49739,174.0938 L179.49739,174.09382 Z M840.33942,174.213305 C840.33942,173.96028 839.96676,173.75325 839.51134,173.75325 C839.05587,173.75325 838.68322,173.96028 838.68322,174.213305 C838.68322,174.46633 839.05587,174.67336 839.51134,174.67336 C839.96676,174.67336 840.33942,174.46633 840.33942,174.213305 Z M842.65128,174.29621 C842.25275,174.13673 841.77658,174.15636 841.59313,174.33971 C841.40963,174.52321 841.73576,174.65368 842.31774,174.6297 C842.9609,174.6033 843.09166,174.47238 842.65128,174.29616 L842.65128,174.29621 Z M188.9863,173.19206 C188.58776,173.03253 188.11159,173.05221 187.92813,173.23556 C187.74469,173.41901 188.07076,173.54953 188.65274,173.5255 C189.29589,173.4991 189.42671,173.36823 188.9863,173.19201 L188.9863,173.19206 Z M127.04961,172.46501 C127.04961,172.16139 126.80117,171.91295 126.49752,171.91295 C126.19388,171.91295 125.94544,172.16139 125.94544,172.46501 C125.94544,172.76867 126.19388,173.0171 126.49752,173.0171 C126.80117,173.0171 127.04961,172.76867 127.04961,172.46501 Z M141.40374,171.01725 C141.40374,170.3987 140.36692,170.94105 140.06996,171.71501 C139.7792,172.47267 139.85998,172.50685 140.56298,171.9234 C141.02539,171.53966 141.40374,171.13185 141.40374,171.01725 Z M146.92455,171.08485 C146.92455,170.62938 146.82685,170.25672 146.70758,170.25672 C146.58824,170.25672 146.34761,170.62938 146.17282,171.08485 C145.99805,171.54032 146.09562,171.91297 146.38979,171.91297 C146.68392,171.91297 146.92455,171.54032 146.92455,171.08485 Z M869.70329,152.21297 C869.30475,152.05345 868.82858,152.07313 868.64513,152.25647 C868.46168,152.43992 868.78776,152.57044 869.36974,152.54641 C870.0129,152.52001 870.14372,152.38914 869.70329,152.21292 L869.70329,152.21297 Z M361.38481,141.03441 C361.5595,140.75174 361.47601,140.38055 361.1992,140.20951 C360.92242,140.03841 360.55351,140.26971 360.3794,140.72342 C360.03617,141.61786 360.86565,141.87445 361.38481,141.03441 Z M99.33591,377.97743 C99.01818,377.59788 98.97497,377.27978 99.23991,377.27055 C99.50482,377.26155 99.25701,376.98385 98.68919,376.65397 C97.2326,375.80771 98.52302,375.08228 101.37781,375.14249 C102.86881,375.17389 103.22748,375.3057 102.48198,375.5481 C101.43006,375.89014 100.64592,377.29564 101.51583,377.2798 C103.13685,377.2502 104.30753,376.52869 104.05495,375.71471 C103.80835,374.91997 103.8742,374.92696 104.56808,375.76911 C105.51101,376.91355 109.71219,377.12413 110.07534,376.04516 C110.25979,375.4971 110.48426,375.50082 111.16585,376.06336 C112.24056,376.95017 112.87476,379.10495 111.96194,378.7682 C111.60629,378.637 111.39578,378.19501 111.49415,377.78602 C111.61924,377.26598 111.36584,377.32039 110.65132,377.96703 C109.83541,378.7054 108.65118,378.86909 104.77162,378.77965 C101.68655,378.70855 99.70278,378.41581 99.33593,377.97756 L99.33591,377.97743 Z M91.75729,376.76055 C91.02186,376.30603 91.37553,375.07901 92.24196,375.07901 C92.87173,375.07901 93.42462,376.63794 92.90808,376.95718 C92.6791,377.0987 92.16125,377.01018 91.75729,376.76055 Z M103.4382,372.3186 C102.82757,371.34081 102.89136,371.20481 103.99551,371.13034 C104.68128,371.08414 105.61502,371.00567 106.07049,370.95607 C107.5432,370.79567 107.8203,371.30015 106.84901,372.37341 C105.622,373.72923 104.30596,373.70809 103.4382,372.31861 L103.4382,372.3186 Z M437.87173,368.21057 C437.87173,368.07666 438.12016,367.81357 438.42381,367.6259 C438.72746,367.43824 438.9759,367.5478 438.9759,367.86936 C438.9759,368.19092 438.72746,368.45403 438.42381,368.45403 C438.12016,368.45403 437.87173,368.34447 437.87173,368.21057 Z M444.34949,367.83343 C444.72398,367.45614 445.16946,367.28651 445.33944,367.45649 C445.50942,367.62647 445.20301,367.93517 444.65854,368.14249 C443.87172,368.44209 443.8083,368.37868 444.34949,367.83343 Z M148.02872,366.31329 C148.02872,366.04683 148.4119,365.51079 148.88023,365.12211 C149.54224,364.5727 149.87912,364.56278 150.39385,365.07751 C150.90858,365.59225 150.87266,365.85548 150.23243,366.26025 C149.19134,366.91844 148.02872,366.94643 148.02872,366.31325 L148.02872,366.31329 Z M771.32921,361.27696 C771.32921,360.97331 771.68717,360.72488 772.12477,360.72488 C772.56227,360.72488 773.07384,360.97331 773.26149,361.27696 C773.44914,361.58061 773.09118,361.82905 772.46593,361.82905 C771.84074,361.82905 771.32921,361.58061 771.32921,361.27696 Z M761.94381,360.69057 C761.94381,360.06209 763.42692,359.99812 763.80529,360.61027 C763.95402,360.85088 763.59596,361.08389 763.00973,361.12805 C762.42345,361.17225 761.94381,360.97534 761.94381,360.69057 Z M214.44098,359.79974 C213.94415,358.50505 214.70117,358.31509 216.60936,359.25562 C217.60476,359.74624 218.17073,360.18502 217.86708,360.23068 C215.54038,360.5806 214.70006,360.47491 214.44098,359.79974 L214.44098,359.79974 Z M691.82941,358.51655 C691.82941,358.2129 691.93893,357.96447 692.07287,357.96447 C692.20675,357.96447 692.46989,358.2129 692.65753,358.51655 C692.84518,358.8202 692.73563,359.06864 692.41408,359.06864 C692.09254,359.06864 691.82941,358.8202 691.82941,358.51655 Z M683.86999,358.03857 C683.63219,357.65376 683.58673,357.18983 683.76896,357.0076 C684.263,356.51351 684.80172,357.24019 684.53493,358.04079 C684.34787,358.6018 684.21784,358.60137 683.86999,358.03779 L683.86999,358.03857 Z M685.89455,358.15092 C684.76432,357.69486 685.11232,356.9396 686.30861,357.25243 C686.91588,357.41123 687.41276,357.76063 687.41276,358.02886 C687.41276,358.5552 686.98224,358.58981 685.89455,358.15092 Z M950.57179,355.38809 C949.93654,354.75285 950.16974,354.0999 951.03185,354.0999 C951.48732,354.0999 951.85997,354.47255 951.85997,354.92802 C951.85997,355.79013 951.20704,356.02333 950.57179,355.38809 Z M265.41696,352.00618 C265.26825,351.76556 265.63162,351.53215 266.22443,351.4875 C266.81725,351.4429 267.15803,351.63971 266.98173,351.92498 C266.59055,352.55793 265.78383,352.59979 265.41696,352.00618 Z M270.3934,351.05786 C270.567,350.60547 271.11723,350.21618 271.61612,350.1928 C272.11501,350.1694 273.64116,350.03838 275.00756,349.90161 C276.79927,349.72227 277.26104,349.80871 276.66381,350.21171 C275.98059,350.67272 275.97253,350.77198 276.61781,350.77895 C277.04796,350.78395 277.2451,350.94222 277.05587,351.13145 C276.86665,351.32068 275.21916,351.5666 273.39479,351.67796 C270.6314,351.84662 270.13045,351.74306 270.3934,351.05786 L270.3934,351.05786 Z M45.089025,349.72139 C44.680725,349.06076 45.719295,348.4062 46.454655,348.86068 C47.072075,349.24227 46.666745,350.23533 45.893565,350.23533 C45.625765,350.23533 45.263715,350.00405 45.089025,349.72139 Z M50.310215,335.36169 C50.310215,335.07597 50.555815,334.6904 50.855985,334.5049 C51.168945,334.31148 51.261485,334.5331 51.072955,335.0244 C50.705945,335.98083 50.310215,336.15582 50.310215,335.36169 L50.310215,335.36169 Z M54.358825,335.07736 C54.358825,334.63524 54.569905,334.40398 54.827895,334.56342 C55.085885,334.72286 55.154035,335.08459 54.979345,335.36726 C54.532915,336.08959 54.358825,336.00826 54.358825,335.07736 Z M1016.4536,263.00638 C1015.9981,262.71204 1015.8739,262.4712 1016.1776,262.4712 C1016.4812,262.4712 1017.1023,262.71204 1017.5577,263.00638 C1018.0132,263.30073 1018.1374,263.54156 1017.8338,263.54156 C1017.5302,263.54156 1016.9091,263.30073 1016.4536,263.00638 Z M109.38298,222.03484 C109.38298,221.7958 109.87985,221.60024 110.48715,221.60024 C111.09443,221.60024 111.59131,221.83324 111.59131,222.118 C111.59131,222.40278 111.09443,222.59835 110.48715,222.5526 C109.87985,222.5068 109.38298,222.27386 109.38298,222.03484 Z M132.50233,213.92697 L131.20774,212.87868 L134.51147,212.4401 C136.32852,212.19889 139.1192,211.98742 140.71297,211.97017 C142.30674,211.95287 143.61103,211.76982 143.6114,211.56329 C143.61193,211.13345 146.90034,211.98951 147.41359,212.55315 C147.6001,212.75796 146.98628,212.78004 146.04957,212.60225 C145.00111,212.40322 143.72782,212.60625 142.73707,213.1296 C141.85191,213.59747 139.8234,214.00432 138.22927,214.0337 C136.63513,214.0631 135.33083,214.28699 135.33083,214.53121 C135.33083,215.32263 133.8299,215.002 132.50233,213.927 L132.50233,213.92697 Z M125.54288,214.08962 C125.72633,213.90617 126.2025,213.88656 126.60103,214.04612 C127.04145,214.22235 126.91063,214.35317 126.26749,214.37966 C125.68551,214.40356 125.35943,214.27315 125.54288,214.0897 L125.54288,214.08962 Z M115.49947,206.46399 C115.47557,205.88201 115.60598,205.55593 115.78943,205.73938 C115.97289,205.92284 115.9925,206.39901 115.83303,206.79754 C115.65679,207.23795 115.52597,207.10713 115.49948,206.46399 L115.49947,206.46399 Z M130.57727,201.82376 C130.73146,201.57429 130.34921,200.93485 129.72783,200.40282 C128.61615,199.45096 128.65278,199.40955 132.01401,197.81996 C136.06228,195.90545 136.435,195.86234 136.435,197.30863 C136.435,197.98895 136.06413,198.41605 135.46886,198.42122 C134.6858,198.42822 134.65073,198.52342 135.28378,198.92411 C135.71337,199.19603 136.52079,199.3307 137.07805,199.22342 C137.6353,199.1161 138.09124,199.28142 138.09124,199.59095 C138.09124,199.90042 137.28383,200.10941 136.29698,200.0554 C135.31013,200.0014 134.00584,199.9862 133.39854,200.0217 C132.47867,200.0753 132.4326,200.17541 133.12251,200.62126 C133.83022,201.07864 133.81016,201.15764 132.98448,201.16487 C132.4531,201.16987 132.01834,201.4218 132.01834,201.72542 C132.01834,202.02907 131.63102,202.2775 131.15764,202.2775 C130.68425,202.2775 130.42309,202.07338 130.57727,201.8239 L130.57727,201.82376 Z M137.63647,197.36878 C137.08145,197.02577 137.10308,196.79549 137.73992,196.26693 C138.63326,195.52552 139.34515,196.17313 138.73034,197.16781 C138.51115,197.52249 138.02862,197.61112 137.63647,197.36878 L137.63647,197.36878 Z M118.49233,174.12118 C118.30467,173.81751 118.52383,173.56908 118.97926,173.56908 C119.43473,173.56908 119.96092,173.81751 120.14858,174.12118 C120.33624,174.42484 120.11718,174.67328 119.66166,174.67328 C119.20619,174.67328 118.68,174.42484 118.49233,174.12118 Z M129.79952,171.64945 C130.5946,170.69149 130.91418,170.59178 130.91418,171.30169 C130.91418,171.57289 130.50639,171.95121 130.00797,172.14247 C129.25024,172.43324 129.21609,172.35248 129.79952,171.64945 Z M910.05724,162.74007 C910.70436,162.0929 914.23927,161.58578 914.95241,162.03773 C915.36286,162.29779 915.45016,162.53905 915.14655,162.57381 C912.17506,162.91449 909.80543,162.99188 910.05724,162.74007 L910.05724,162.74007 Z M906.70558,162.05897 C906.24664,161.76781 906.58986,161.60736 907.67174,161.60736 C908.59459,161.60736 909.34967,161.81439 909.34967,162.06742 C909.34967,162.65501 907.63639,162.64955 906.70558,162.05842 L906.70558,162.05897 Z M892.5112,161.35414 C890.14772,160.82508 884.41046,160.44559 873.6902,160.10936 C870.01891,159.99417 866.484,159.61571 865.83488,159.26834 C865.12848,158.89027 862.65524,158.69793 859.67414,158.78924 C856.93478,158.87324 854.69357,158.88544 854.69357,158.81614 C854.69357,158.62405 857.90582,157.00627 858.28727,157.00627 C858.47208,157.00627 858.46974,157.25471 858.28227,157.55833 C858.08319,157.88044 858.64462,158.11043 859.62992,158.11043 C860.55873,158.11043 861.31874,157.86199 861.31874,157.55833 C861.31874,157.25471 861.58188,157.00627 861.90341,157.00627 C862.22499,157.00627 862.30151,157.31682 862.07348,157.69636 C861.76694,158.20662 861.86635,158.2408 862.45492,157.82737 C862.89277,157.51985 863.74789,157.29675 864.35517,157.33162 C864.96249,157.36632 866.77831,157.43167 868.39037,157.47664 C870.00243,157.52154 871.20605,157.74465 871.06503,157.97239 C870.92402,158.20012 872.33783,158.35007 874.20688,158.30564 C876.07592,158.26074 878.03993,158.45632 878.57128,158.73914 C879.2161,159.08245 879.53744,159.05256 879.53744,158.64944 C879.53744,158.31716 879.83778,158.23093 880.20478,158.45779 C880.57187,158.68465 882.99413,158.93801 885.58759,159.02088 C888.1811,159.10368 890.30302,159.2009 890.30302,159.23689 C890.30302,159.27299 891.54521,159.38279 893.06347,159.48123 C894.58168,159.57963 895.88598,159.71516 895.96186,159.78245 C896.0914,159.89724 896.6602,160.06448 897.61811,160.26941 C898.05741,160.36341 895.46596,161.96682 894.99574,161.89202 C894.84389,161.86762 893.72597,161.62566 892.51137,161.35379 L892.5112,161.35414 Z M870.15187,158.59388 C870.15187,158.32821 869.66969,158.11082 869.08029,158.11082 C868.49093,158.11082 867.87438,158.32821 867.71017,158.59388 C867.54591,158.8596 868.02819,159.07694 868.7817,159.07694 C869.53532,159.07694 870.15187,158.8596 870.15187,158.59388 Z M899.68268,156.99764 C899.49196,156.68905 899.10465,156.57948 898.82199,156.75418 C898.53932,156.92889 898.30802,156.82338 898.30802,156.51976 C898.30802,155.45086 899.19879,155.43392 899.85846,156.49046 C900.22545,157.07811 900.41408,157.55887 900.2776,157.55887 C900.14113,157.55887 899.8734,157.30638 899.68268,156.99784 L899.68268,156.99764 Z M887.86447,154.84437 C887.28253,154.26234 886.69113,153.9014 886.55031,154.04217 C886.40954,154.18304 885.08454,154.38148 883.60587,154.48329 C881.04459,154.65965 877.86886,153.52225 878.67414,152.71703 C879.31867,152.07245 883.13131,152.22332 883.96413,152.9263 C884.81681,153.64608 886.37047,153.66996 887.06637,152.9737 C887.65226,152.38786 890.46842,152.51632 890.85797,153.14669 C891.3883,154.00475 890.60026,155.90216 889.71354,155.90216 C889.27858,155.90216 888.4465,155.42599 887.86447,154.84401 L887.86447,154.84437 Z M893.56261,155.26512 C893.3275,154.88465 893.41032,154.77699 893.76793,154.99803 C894.09752,155.20179 894.52326,155.1159 894.71393,154.80731 C895.22838,153.97494 895.91569,154.12772 895.91569,155.07435 C895.91569,156.04686 894.13497,156.1912 893.56261,155.26512 Z M248.10507,151.15233 C248.28852,150.96883 248.76469,150.9492 249.16323,151.10883 C249.60364,151.28505 249.47283,151.41586 248.82968,151.44238 C248.24769,151.46628 247.92162,151.33588 248.10507,151.15239 L248.10507,151.15233 Z M359.47609,135.47542 C359.47609,135.17181 359.58565,134.92337 359.71955,134.92337 C359.85346,134.92337 360.11655,135.17181 360.30422,135.47542 C360.49189,135.77909 360.38232,136.02752 360.06076,136.02752 C359.7392,136.02752 359.47609,135.77909 359.47609,135.47542 Z M372.3496,135.53132 C371.45842,134.87654 371.67155,133.93562 372.65292,134.19221 C373.27873,134.35593 373.68024,134.13071 373.73821,133.58357 C373.78881,133.10588 373.87163,132.34241 373.92224,131.88694 C373.97284,131.43147 374.46972,131.02781 375.02641,130.98982 C375.58309,130.95172 376.22488,130.86951 376.45261,130.80681 C376.68035,130.74401 377.61199,130.49246 378.52292,130.24758 C380.5486,129.70315 381.64887,128.88987 381.24467,128.23586 C381.07827,127.96663 381.43296,127.74636 382.03287,127.74636 C382.63277,127.74636 383.24961,128.05686 383.40362,128.43645 C383.59817,128.91594 383.82285,128.94573 384.13973,128.53425 C384.95027,127.48157 386.6406,127.153 387.53219,127.87493 C388.24794,128.45437 388.31517,128.43992 387.92372,127.79053 C387.56474,127.19507 387.68283,127.09551 388.41498,127.37647 C388.9451,127.57994 389.71442,127.74634 390.12459,127.74634 C390.53476,127.74634 391.01996,128.21768 391.20281,128.79381 C391.41652,129.46714 391.8899,129.74849 392.5282,129.5816 C393.93738,129.21309 393.7916,127.84805 392.37098,128.10948 C391.24845,128.31602 391.24735,128.30845 392.32498,127.79644 C392.93227,127.50792 394.27003,127.2544 395.29778,127.23306 C396.32552,127.21156 398.68568,126.95059 400.54255,126.65274 C405.35531,125.88091 417.45344,124.52833 422.96552,124.1459 C425.5465,123.9669 428.77619,123.72193 430.14259,123.60152 C433.02133,123.34791 438.70445,122.9442 446.15297,122.46422 C449.03759,122.27833 453.01259,121.98941 454.98628,121.82222 C459.72983,121.42037 467.19707,121.39039 468.23625,121.76922 C468.69172,121.93523 470.12022,122.26179 471.41071,122.495 C472.70121,122.72815 473.75707,123.10174 473.75707,123.32517 C473.75707,123.54856 473.14288,124.34558 472.39221,125.09622 C471.28107,126.2074 470.51096,126.451 468.24929,126.40676 C466.59735,126.37406 465.54672,126.57908 465.65747,126.9115 C465.7599,127.21892 467.75645,127.49094 470.09425,127.5159 C473.76568,127.555 476.211,128.26931 475.3765,129.05852 C475.0032,129.41165 467.68401,129.76057 467.68541,129.42522 C467.6859,129.26101 466.00914,129.20442 463.95885,129.29939 C461.90856,129.39439 458.80583,129.24649 457.06387,128.97009 C455.32193,128.69397 453.77884,128.58591 453.63479,128.73001 C453.49075,128.874 452.30739,129.04426 451.00511,129.10833 C449.70284,129.17243 447.95092,129.41677 447.11194,129.65144 C446.20477,129.9052 445.30236,129.84231 444.88537,129.49622 C444.49971,129.1762 441.78212,128.85691 438.84625,128.7867 C435.21193,128.6999 433.62175,128.46946 433.86371,128.06477 C434.05919,127.73797 433.79741,127.81258 433.28202,128.23069 C432.63737,128.75359 431.64403,128.87879 430.09897,128.63172 C428.62401,128.39588 427.9729,128.46658 428.20225,128.83767 C428.59318,129.47019 428.52044,129.4823 423.5176,129.61673 C421.54391,129.66973 419.37009,129.90847 418.68689,130.14724 C418.00369,130.38601 417.4447,130.3783 417.4447,130.13014 C417.4447,129.88195 416.82361,129.67887 416.0645,129.67887 C415.30539,129.67887 414.68429,129.8652 414.68429,130.09294 C414.68429,130.32067 414.29698,130.507 413.82359,130.507 C413.3502,130.507 413.0926,130.29718 413.25114,130.04059 C413.63431,129.42062 407.96285,130.33112 407.55118,130.95568 C406.79755,132.09904 396.46558,133.25768 396.46558,132.19884 C396.46558,131.8757 396.20248,131.61115 395.88091,131.61115 C395.55934,131.61115 395.43918,131.84245 395.61387,132.12511 C396.11328,132.93317 394.84308,133.43068 394.0215,132.7488 C393.47034,132.29137 393.21133,132.31935 393.00443,132.85851 C392.82577,133.32404 391.91728,133.53669 390.45558,133.45495 C389.2064,133.38515 388.18435,133.56003 388.18435,133.84362 C388.18435,134.75661 385.34798,134.15705 384.79705,133.12765 C384.50408,132.58024 384.02435,132.28068 383.73098,132.46198 C383.43762,132.64328 383.32444,132.99689 383.47947,133.24772 C383.63451,133.49855 383.39807,133.84323 382.95408,134.01359 C382.51008,134.184 381.99754,134.08189 381.81509,133.78664 C381.61284,133.45939 380.90562,133.57184 380.00314,134.07467 C378.30493,135.02096 373.023,136.02638 372.34959,135.53156 L372.3496,135.53132 Z M364.44484,133.02371 C364.44484,132.05398 364.77611,131.91121 365.24938,132.67693 C365.42408,132.9596 365.31448,133.34695 365.00592,133.53762 C364.69733,133.72835 364.44484,133.49762 364.44484,133.02371 L364.44484,133.02371 Z M366.52533,132.07004 C366.84614,131.7492 367.43451,131.59534 367.8328,131.7281 C368.24628,131.86594 367.99602,132.11619 367.2495,132.3114 C366.33119,132.55154 366.11565,132.47966 366.52533,132.07004 Z M556.70736,130.66921 C556.02416,130.53762 555.46517,130.24031 555.46517,130.00857 C555.46517,129.33294 557.86468,129.70022 558.10203,130.41218 C558.22061,130.76785 558.2348,131.02498 558.13343,130.98362 C558.03223,130.94212 557.39043,130.80081 556.70724,130.66921 L556.70736,130.66921 Z M545.25166,129.40256 C546.76939,128.75042 547.64107,128.75042 546.63186,129.40256 C546.17639,129.69695 545.43108,129.92415 544.97562,129.9074 C544.42956,129.8874 544.52363,129.71545 545.25166,129.40256 Z M548.59595,129.45396 C548.4258,129.17862 548.78382,129.0834 549.3915,129.24234 C550.68061,129.57945 550.84359,129.9546 549.70089,129.9546 C549.26337,129.9546 548.76616,129.7293 548.59595,129.45396 L548.59595,129.45396 Z M477.52317,128.2046 C476.65416,127.33116 477.04862,127.27056 483.87211,127.22945 C487.87365,127.20505 491.70139,127.07857 492.37821,126.94776 C493.05503,126.81695 493.73761,126.91846 493.89508,127.1732 C494.05255,127.42798 494.94162,127.5838 495.87078,127.51944 C498.3829,127.34556 498.39484,128.14932 495.88368,128.38882 C494.69633,128.50206 493.84285,128.40352 493.98705,128.17047 C494.44026,127.43716 493.59012,127.70923 492.725,128.57437 C491.78578,129.51358 489.45366,129.68267 488.93837,128.84893 C488.71121,128.48135 488.23262,128.4899 487.51417,128.87433 C486.29186,129.52848 485.14115,129.08395 485.70309,128.17472 C485.94883,127.77712 485.81253,127.73932 485.29803,128.06227 C484.87157,128.33 483.15623,128.68107 481.48619,128.84245 C479.09638,129.07331 478.25241,128.93755 477.52315,128.20451 L477.52317,128.2046 Z M521.78818,128.85035 C521.78818,128.54673 521.89773,128.2983 522.03164,128.2983 C522.16553,128.2983 522.42864,128.54673 522.6163,128.85035 C522.80396,129.15401 522.6944,129.40245 522.37284,129.40245 C522.05128,129.40245 521.78818,129.15401 521.78818,128.85035 Z M499.7049,127.7462 C499.20731,127.42466 499.13923,127.20762 499.53429,127.20255 C499.89593,127.19755 500.34536,127.44254 500.53302,127.7462 C500.95664,128.43165 500.76551,128.43165 499.7049,127.7462 Z M715.33937,127.6709 C715.62506,127.2087 713.52165,126.665 713.09567,127.09102 C712.50207,127.68458 710.04811,127.79673 710.04811,127.23023 C710.04811,126.87984 708.47731,126.79542 705.7695,127.00035 C702.44987,127.25162 701.05773,127.12213 699.55856,126.42286 C698.49582,125.9272 698.04499,125.63555 698.55675,125.77476 C699.06852,125.91397 699.5654,125.81186 699.6609,125.5482 C699.7564,125.28443 700.20724,124.98785 700.66271,124.88912 C701.11818,124.79052 701.67335,124.46129 701.89645,124.15762 C702.11955,123.85396 702.30587,124.14962 702.31051,124.815 C702.31851,125.95831 702.40201,125.98106 703.83717,125.23131 C705.19914,124.51983 705.4341,124.53741 706.11979,125.40206 C706.84674,126.31881 706.86789,126.31871 706.55119,125.40206 C706.29416,124.65645 706.52289,124.43594 707.55363,124.43594 C708.28815,124.43594 709.1423,124.87071 709.45182,125.40206 C709.76413,125.93824 710.02199,126.06109 710.03131,125.67813 C710.04891,124.95518 711.70436,124.68199 711.70436,125.40206 C711.70436,125.62979 713.58249,125.80176 715.87799,125.78423 C718.1735,125.76663 720.1756,125.95298 720.32721,126.1983 C720.47882,126.44356 721.13473,126.64424 721.78483,126.64424 C722.73043,126.64424 722.82882,126.78228 722.27672,127.33433 C721.58576,128.0253 714.92057,128.35084 715.33937,127.67315 L715.33937,127.6709 Z M724.40226,127.6543 C724.40226,127.40123 724.58859,127.17745 724.81632,127.15694 C725.04406,127.13644 726.02526,127.01568 726.99679,126.88863 C729.18112,126.60284 729.95876,127.54996 727.85753,127.93692 C725.78014,128.31949 724.40226,128.20684 724.40226,127.6543 L724.40226,127.6543 Z M684.65285,125.81397 C684.65294,125.51036 683.72126,125.26192 682.58244,125.26192 C681.44352,125.26192 680.32921,125.51036 680.10612,125.81397 C679.83571,126.18204 679.69728,126.18204 679.69079,125.81397 C679.67859,125.12232 676.37111,124.9587 676.37111,125.64981 C676.37111,125.92779 676.14533,126.01568 675.8694,125.84512 C675.34357,125.52017 670.48732,124.99844 665.32946,124.71275 C663.65944,124.62025 662.29303,124.48878 662.29303,124.42056 C662.29303,124.05054 655.02897,124.04483 654.56422,124.41456 C653.73463,125.07448 648.21494,125.53488 648.21494,124.9441 C648.21494,124.66344 647.84228,124.43385 647.38681,124.43385 C646.93134,124.43385 646.55869,124.67355 646.55869,124.96661 C646.55869,125.29923 642.6701,125.40118 636.20715,125.2381 C630.5138,125.09445 625.25633,124.9795 624.52388,124.98268 C623.79144,124.98768 622.36293,124.75939 621.34941,124.47955 C620.24122,124.1736 619.50668,124.17169 619.50668,124.47455 C619.50668,124.97626 617.57577,124.89501 617.05207,124.37123 C616.90096,124.22016 614.3886,124.18485 611.46903,124.29283 C607.95028,124.42296 605.89775,124.27083 605.38061,123.84166 C604.77304,123.33736 604.59859,123.36178 604.59202,123.95191 C604.58602,124.43063 604.43423,124.49728 604.17796,124.13287 C603.93443,123.78673 600.79364,123.52872 596.31923,123.48746 C592.22003,123.44986 579.79818,123.27652 568.71514,123.10289 C557.6321,122.92931 543.40909,122.75411 537.10845,122.71368 C530.80782,122.67368 525.65218,122.48473 525.6515,122.29474 C525.65101,122.10465 524.28434,121.94918 522.6149,121.94918 C520.94547,121.94918 519.57963,122.13551 519.5797,122.36324 C519.57978,122.59098 519.31674,122.77731 518.99518,122.77731 C518.67362,122.77731 518.56406,122.52887 518.75173,122.22521 C518.93939,121.92159 518.70563,121.67315 518.23223,121.67315 C517.75884,121.6734 517.37152,121.42496 517.37152,121.12135 C517.37152,120.81769 517.10842,120.56925 516.78685,120.56925 C516.46529,120.56925 516.35574,120.81769 516.5434,121.12135 C516.74494,121.44742 516.13682,121.66998 515.05776,121.66495 C513.67513,121.65795 513.43228,121.52638 514.05903,121.12135 C514.67067,120.72608 514.69644,120.58395 514.15763,120.5777 C513.59579,120.5707 513.61845,120.37887 514.25623,119.74112 C514.7117,119.28566 515.59897,118.913 516.22796,118.913 C516.85693,118.913 517.37155,118.64781 517.37155,118.32369 C517.37155,117.97413 517.84874,117.8859 518.54485,118.10685 C519.33441,118.35743 519.5946,118.27931 519.34039,117.86803 C519.13262,117.5318 519.10952,117.25675 519.28899,117.25675 C519.46851,117.25675 519.80442,117.76769 520.03544,118.3922 L520.45548,119.5277 L521.91134,118.38248 C522.90936,117.59752 523.48787,117.43253 523.75086,117.85807 C524.02287,118.2982 524.2692,118.2609 524.59743,117.7298 C524.97363,117.12106 528.76142,116.98458 544.81742,117.00133 C555.68382,117.01303 569.04636,117.18146 574.51197,117.37657 C579.97758,117.57164 589.04552,117.8753 594.66296,118.05138 C614.94689,118.68702 620.17223,118.91803 620.62671,119.19894 C621.64249,119.82662 626.09111,120.38341 626.7647,119.9671 C627.17987,119.71056 627.66349,119.80216 627.91132,120.18434 C628.2312,120.67755 628.47793,120.63512 628.88359,120.01715 C629.1826,119.56168 629.43136,119.43746 629.43639,119.74112 C629.44239,120.08956 632.85665,120.26857 638.69221,120.22648 C647.91458,120.15988 663.67264,121.05108 663.67381,121.63937 C663.67416,121.80992 665.59955,121.92149 667.95243,121.88741 C671.98475,121.82891 681.27328,122.58443 682.9202,123.10494 C683.52767,123.29698 683.53919,123.50338 682.9802,124.17701 C682.41677,124.85587 682.43089,124.96603 683.0561,124.76861 C683.47861,124.63522 684.51762,124.37379 685.36504,124.18771 C686.31435,123.97921 686.78335,123.59068 686.58667,123.17545 C686.41108,122.8048 686.55687,122.89044 686.91098,123.36564 C687.43139,124.06451 688.14077,124.15021 690.62002,123.81378 C692.36347,123.57721 694.10302,123.6212 694.65351,123.91578 C695.18589,124.20074 696.32094,124.46764 697.17597,124.50899 C698.60796,124.57819 698.62553,124.60399 697.39878,124.83517 C696.36831,125.0294 696.24345,125.19781 696.84673,125.57965 C697.70024,126.11993 696.98286,126.18761 689.20717,126.30021 C686.49472,126.33931 684.65268,126.14283 684.65288,125.81402 L684.65285,125.81397 Z M524.19737,120.84844 C524.02326,120.39468 523.6584,120.16094 523.38658,120.32896 C522.60708,120.8107 522.81021,121.67335 523.70314,121.67335 C524.19564,121.67335 524.38965,121.34952 524.19737,120.84844 L524.19737,120.84844 Z M491.99819,122.73565 C492.56635,121.67398 492.5326,121.55342 491.75116,121.85328 C490.97167,122.1524 490.93655,122.0315 491.49812,120.98218 L492.1502,119.76378 L492.69943,120.99464 C493.32958,122.40679 494.46966,122.61212 494.93582,121.39732 C495.11059,120.94185 495.05435,120.5692 494.81085,120.5692 C494.56734,120.5692 494.3681,120.19351 494.3681,119.73428 C494.3681,119.05548 494.86694,118.96553 497.03651,119.25333 C498.85946,119.49512 499.7049,119.40982 499.7049,118.98414 C499.7049,118.63795 500.57841,118.3609 501.66977,118.3609 C502.95793,118.3609 503.5054,118.57003 503.25939,118.96807 C502.99259,119.39971 503.21899,119.39605 504.04251,118.95537 C505.00498,118.44028 505.14631,118.47763 504.87819,119.17631 C504.70071,119.63877 504.33365,120.01718 504.06249,120.01718 C503.79133,120.01718 503.56947,120.26562 503.56947,120.56923 C503.56947,121.72006 504.5672,121.05493 505.22572,119.46508 C505.99375,117.61093 506.01352,117.60073 507.39753,118.3414 C508.09567,118.71504 508.31142,119.29843 508.12061,120.29658 C507.97103,121.07905 508.06591,121.64687 508.33145,121.5583 C508.59699,121.4698 508.93847,121.6401 509.09029,121.93691 C509.25357,122.25605 507.94134,122.51469 505.87805,122.57011 C502.68905,122.65571 502.33803,122.55011 501.78683,121.34047 C501.19257,120.03618 499.15282,119.46421 499.15282,120.6018 C499.15282,120.92343 499.39841,121.03471 499.69858,120.84922 C500.00655,120.65883 500.10691,120.87022 499.92893,121.33383 C499.74464,121.81411 499.25061,122.01655 498.74052,121.82075 C498.17302,121.60302 498.00372,121.70615 498.25671,122.11552 C498.70083,122.83413 496.86605,123.36474 494.73616,123.13364 C493.97705,123.05134 492.90239,123.20474 492.34802,123.47461 C491.44483,123.9143 491.40848,123.83759 491.99819,122.73569 L491.99819,122.73565 Z M507.10114,120.66124 C507.25753,120.40821 507.03464,120.20118 506.60592,120.20118 C506.17717,120.20118 505.95432,120.40821 506.11071,120.66124 C506.2671,120.91426 506.48995,121.1213 506.60592,121.1213 C506.7219,121.1213 506.94475,120.91426 507.10114,120.66124 Z M484.56144,122.84029 C484.39511,122.57115 484.75413,122.22154 485.35925,122.06329 C486.09207,121.87164 486.34682,121.48194 486.12211,120.89639 C485.93654,120.4128 486.01834,120.01714 486.30385,120.01714 C487.0611,120.01714 486.9387,121.82056 486.12632,122.63297 C485.30228,123.45699 484.96979,123.50103 484.56144,122.84029 Z M487.94684,121.30533 C488.1022,120.90045 488.30038,120.5692 488.387223,120.5692 C488.47402,120.5692 488.67224,120.90045 488.8276,121.30533 C488.98297,121.71021 488.7848,122.04146 488.387223,122.04146 C487.98966,122.04146 487.79148,121.71021 487.94684,121.30533 Z M490.07596,119.75865 C490.66538,119.31285 491.69195,118.94019 492.35723,118.93052 C493.67409,118.91102 494.51315,119.74859 493.68816,120.2585 C493.40549,120.43316 493.07902,120.2907 492.96266,119.94141 C492.80367,119.46446 492.45802,119.46353 491.5716,119.93641 C489.87457,120.84466 488.80728,120.71668 490.07596,119.75711 L490.07596,119.75865 Z M482.73988,119.68355 C482.92334,119.5001 483.39951,119.48048 483.79804,119.64005 C484.23845,119.81627 484.10763,119.94709 483.46449,119.97355 C482.88251,119.99745 482.55643,119.86706 482.73988,119.68361 L482.73988,119.68355 Z M511.8507,119.465 C511.14299,119.00767 511.16305,118.92857 511.98873,118.92134 C512.5201,118.91634 512.95487,119.16133 512.95487,119.465 C512.95487,120.13834 512.89257,120.13834 511.8507,119.465 Z M508.88574,118.62413 C508.62248,117.93804 508.7641,117.89078 509.6548,118.36749 C510.93456,119.0524 511.05587,119.465 509.97749,119.465 C509.5545,119.465 509.06322,119.08658 508.88574,118.62413 L508.88574,118.62413 Z" id="path2987" transform="translate(517.999833, 250.731752) rotate(-14.000000) translate(-517.999833, -250.731752) "></path>
        </g>
    </g>
</svg>